#N canvas 712 142 275 118 10;
#X msg -118 44 slll.counter.pd;
#X obj -118 21 bng 14 250 50 0 empty empty open_this_patch 17 7 0 12
-262144 -1 -1;
#X obj 11 20 bng 14 250 50 0 empty empty close_this_patch 17 7 0 12
-262144 -1 -1;
#N canvas 1166 242 359 194 open-a-patch 0;
#X msg 99 147 \; pd open \$1 \$2;
#X obj 144 76 getdir;
#X obj -19 124 makefilename pd-%s;
#X msg -19 147 \; \$1 menuclose \;;
#X obj -27 97 symbol;
#X obj -37 47 trigger bang anything bang;
#X obj 50 76 symbol;
#X obj 99 124 pack s s;
#X obj 99 76 symbol;
#X obj -78 13 inlet;
#X obj -120 13 inlet;
#X connect 1 0 7 1;
#X connect 2 0 3 0;
#X connect 4 0 2 0;
#X connect 5 1 6 0;
#X connect 5 1 8 0;
#X connect 5 2 1 0;
#X connect 6 0 4 1;
#X connect 7 0 0 0;
#X connect 8 0 7 0;
#X connect 9 0 4 0;
#X connect 10 0 5 0;
#X restore -118 69 pd open-a-patch;
#X connect 0 0 3 0;
#X connect 1 0 0 0;
#X connect 2 0 3 1;
