#N canvas 269 283 722 466 10;
#X obj 108 51 tedium_input 23;
#X text 95 23 tact switches #0-2:;
#X obj 109 86 tedium_input 25;
#X obj 110 122 tedium_input 24;
#X obj 468 51 loadbang;
#X obj 468 77 delay 300;
#X msg 467 160 \; pd dsp 1 \;;
#X obj 350 315 dac~;
#X obj 351 280 *~ 1;
#X obj 351 255 osc~;
#X msg 429 129 100;
#X msg 292 181 250;
#X msg 330 194 500;
#X msg 369 205 1000;
#X text 225 22 (panel switches);
#X text 477 133 start dsp after 300 ms.;
#X connect 0 0 11 0;
#X connect 2 0 12 0;
#X connect 3 0 13 0;
#X connect 4 0 5 0;
#X connect 5 0 6 0;
#X connect 5 0 10 0;
#X connect 8 0 7 0;
#X connect 8 0 7 1;
#X connect 9 0 8 0;
#X connect 10 0 9 0;
#X connect 11 0 9 0;
#X connect 12 0 9 0;
#X connect 13 0 9 0;
