#N canvas 91 110 740 390 10;
#X obj 69 75 r adc0;
#X obj 134 137 r adc1;
#X obj 173 55 r adc2;
#X obj 245 119 r adc3;
#X obj 299 68 r adc4;
#X obj 383 54 r adc5;
#X obj 409 114 r adc6;
#X obj 520 76 r adc7;
#X obj 57 294 dac~;
#X obj 46 104 osc~ 200;
#X obj 108 106 osc~ 400;
#X obj 137 28 osc~ 600;
#X obj 193 94 osc~ 800;
#X obj 275 38 osc~ 10000;
#X obj 389 92 osc~ 12000;
#X obj 357 28 osc~ 14000;
#X obj 460 47 osc~ 16000;
#X obj 49 139 *~;
#X obj 105 160 *~;
#X obj 159 79 *~;
#X obj 190 151 *~;
#X obj 291 99 *~;
#X obj 351 79 *~;
#X obj 389 137 *~;
#X obj 480 99 *~;
#X obj 42 178 *~ 0.001;
#X obj 103 187 *~ 0.001;
#X obj 217 181 *~ 0.001;
#X obj 160 212 *~ 0.001;
#X obj 277 200 *~ 0.001;
#X obj 317 132 *~ 0.001;
#X obj 468 174 *~ 0.001;
#X obj 559 202 *~ 0.001;
#X connect 0 0 17 1;
#X connect 1 0 18 1;
#X connect 2 0 19 1;
#X connect 3 0 20 1;
#X connect 4 0 21 1;
#X connect 5 0 22 1;
#X connect 6 0 23 1;
#X connect 7 0 24 1;
#X connect 9 0 17 0;
#X connect 10 0 18 0;
#X connect 11 0 19 0;
#X connect 12 0 20 0;
#X connect 13 0 21 0;
#X connect 14 0 23 0;
#X connect 15 0 22 0;
#X connect 16 0 24 0;
#X connect 17 0 25 0;
#X connect 18 0 26 0;
#X connect 19 0 28 0;
#X connect 20 0 27 0;
#X connect 21 0 29 0;
#X connect 22 0 30 0;
#X connect 23 0 31 0;
#X connect 24 0 32 0;
#X connect 25 0 8 0;
#X connect 25 0 8 1;
#X connect 26 0 8 0;
#X connect 26 0 8 1;
#X connect 27 0 8 0;
#X connect 27 0 8 1;
#X connect 28 0 8 0;
#X connect 28 0 8 1;
#X connect 29 0 8 0;
#X connect 29 0 8 1;
#X connect 30 0 8 0;
#X connect 30 0 8 1;
#X connect 31 0 8 0;
#X connect 31 0 8 1;
#X connect 32 0 8 0;
#X connect 32 0 8 1;
