#N canvas 70 96 1296 672 12;
#X obj 127 616 delwrite~ del1 8000;
#X obj 123 703 vd~ del1;
#X obj 128 673 sig~;
#X floatatom 127 647 5 0 0 0 - - -;
#X obj 165 410 s adc0;
#X obj 226 410 s adc1;
#X obj 288 410 s adc2;
#X obj 352 410 s adc3;
#X obj 412 410 s adc4;
#X obj 476 410 s adc5;
#X obj 541 98 loadbang;
#X obj 541 126 delay 300;
#X msg 541 195 \; pd dsp 1 \;;
#X obj 541 410 s adc6;
#X obj 601 410 s adc7;
#X msg 116 294 open;
#X obj 166 254 r initbang;
#X obj 622 165 s initbang;
#X msg 230 295 open adc;
#X obj 165 326 metro 10;
#X obj 165 362 terminal_tedium_adc;
#X msg 420 296 smooth 4;
#X msg 322 297 deadband 2;
#X text 680 281 the "open" message opens the device. - don't supply
any parameter for use with the wm8731 version (= 6 ADC channels) -
use "open adc" for use with pcm5102a version (= 8 ADC channels). the
metro object determines the update rate (in ms).;
#X text 681 363 the "smooth" message adds (optional) averaging (not
connected in this example): 1 \, 2 \, 4 \, 8 \, and 16 are the options
(defaults to 1 \, ie no averaging) the "deadband" message can be used
to add some hysteresis (ditto: not connected here): 0 \, 1 \, 2 \,
3 \, 4 \, and 5 are legal values (default is 0).;
#X obj 165 448 r adc0;
#X obj 221 448 r adc1;
#X obj 278 448 r adc2;
#X obj 336 448 r adc3;
#X obj 393 448 r adc4;
#X obj 450 448 r adc5;
#X obj 313 496 pack f f f f f f f f;
#X obj 313 527 print adc:;
#X obj 505 448 r adc6;
#X obj 557 447 r adc7;
#X obj 107 549 r adc0;
#X obj 260 548 r adc1;
#X obj 404 547 r adc2;
#X obj 549 547 r adc3;
#X obj 695 550 r adc4;
#X obj 841 551 r adc5;
#X obj 275 674 sig~;
#X floatatom 274 648 5 0 0 0 - - -;
#X obj 419 675 sig~;
#X floatatom 418 649 5 0 0 0 - - -;
#X obj 566 676 sig~;
#X floatatom 565 650 5 0 0 0 - - -;
#X obj 710 676 sig~;
#X floatatom 709 650 5 0 0 0 - - -;
#X obj 857 677 sig~;
#X floatatom 856 651 5 0 0 0 - - -;
#X obj 274 617 delwrite~ del2 8000;
#X obj 418 618 delwrite~ del3 8000;
#X obj 565 619 delwrite~ del4 8000;
#X obj 709 619 delwrite~ del5 8000;
#X obj 856 620 delwrite~ del6 8000;
#X obj 270 704 vd~ del2;
#X obj 414 705 vd~ del3;
#X obj 561 706 vd~ del4;
#X obj 705 706 vd~ del5;
#X obj 852 707 vd~ del6;
#X obj 64 104 adc~;
#X obj 77 448 +~;
#X obj 63 149 hip~ 5;
#X obj 142 149 hip~ 5;
#X obj 62 185 *~ 0.75;
#X obj 141 185 *~ 0.75;
#X text 199 147 highpass filter;
#X text 203 184 rescale amplitude;
#X text 113 99 AUDIO IN from the TERMINAL TEDIUM \, ADC 1 & 2 = L &
R in the front panel;
#X obj 62 224 dac~;
#X text 620 92 send a trigger when the patch start;
#X text 622 124 delay the trigger 300ms.;
#X text 709 165 send the trigger;
#X text 612 203 the trigger start the dsp;
#X text 108 224 AUDIO OUT from the TERMINAL TEDIUM;
#X connect 2 0 1 0;
#X connect 3 0 2 0;
#X connect 10 0 11 0;
#X connect 11 0 12 0;
#X connect 11 0 17 0;
#X connect 15 0 20 0;
#X connect 16 0 15 0;
#X connect 16 0 18 0;
#X connect 16 0 19 0;
#X connect 19 0 20 0;
#X connect 20 0 4 0;
#X connect 20 1 5 0;
#X connect 20 2 6 0;
#X connect 20 3 7 0;
#X connect 20 4 8 0;
#X connect 20 5 9 0;
#X connect 20 6 13 0;
#X connect 20 7 14 0;
#X connect 21 0 20 0;
#X connect 22 0 20 0;
#X connect 25 0 31 0;
#X connect 26 0 31 1;
#X connect 27 0 31 2;
#X connect 28 0 31 3;
#X connect 29 0 31 4;
#X connect 30 0 31 5;
#X connect 31 0 32 0;
#X connect 33 0 31 6;
#X connect 34 0 31 7;
#X connect 35 0 3 0;
#X connect 36 0 42 0;
#X connect 37 0 44 0;
#X connect 38 0 46 0;
#X connect 39 0 48 0;
#X connect 40 0 50 0;
#X connect 41 0 56 0;
#X connect 42 0 41 0;
#X connect 43 0 57 0;
#X connect 44 0 43 0;
#X connect 45 0 58 0;
#X connect 46 0 45 0;
#X connect 47 0 59 0;
#X connect 48 0 47 0;
#X connect 49 0 60 0;
#X connect 50 0 49 0;
#X connect 61 0 63 0;
#X connect 61 1 64 0;
#X connect 62 0 0 0;
#X connect 62 0 51 0;
#X connect 62 0 52 0;
#X connect 62 0 53 0;
#X connect 62 0 54 0;
#X connect 62 0 55 0;
#X connect 63 0 65 0;
#X connect 64 0 66 0;
#X connect 65 0 70 0;
#X connect 66 0 70 1;
