#N canvas 227 229 1041 376 10;
#X obj 18 189 send grain-lenght;
#X obj 21 143 hsl 128 15 1 0.001 0 0 empty empty empty -2 -8 0 10 -262144
-1 -1 0 1;
#X floatatom 18 167 5 0 0 0 - - -;
#X obj 184 143 hsl 128 15 0 4000 0 0 empty empty empty -2 -8 0 10 -262144
-1 -1 0 1;
#X floatatom 181 164 5 0 0 0 - - -;
#X text 40 121 grain dimension;
#X text 70 161 10 to 1000 ms;
#X msg 182 104 0;
#X text 116 319 start the dsp;
#X floatatom 331 208 5 0 0 0 - - -;
#X obj 132 28 loadbang;
#X obj 243 6 s initbang;
#X text 130 6 send the trigger;
#X obj 132 54 delay 300;
#X obj 535 145 s adc0;
#X obj 596 145 s adc1;
#X obj 658 145 s adc2;
#X obj 722 145 s adc3;
#X obj 782 145 s adc4;
#X obj 846 145 s adc5;
#X obj 911 145 s adc6;
#X obj 973 145 s adc7;
#X msg 328 52 open;
#X obj 328 24 r initbang;
#X msg 517 53 open adc;
#X obj 419 83 metro 10;
#X obj 419 108 terminal_tedium_adc;
#X obj 486 179 r adc0;
#X obj 542 179 r adc1;
#X obj 599 179 r adc2;
#X obj 657 179 r adc3;
#X obj 714 179 r adc4;
#X obj 771 179 r adc5;
#X obj 486 209 pack f f f f f f f f;
#X obj 483 235 print adc:;
#X obj 826 179 r adc6;
#X obj 878 178 r adc7;
#X msg 444 53 smooth 16;
#X msg 370 53 deadband 5;
#X text 128 337 sum and dac;
#X obj 77 220 r adc0;
#X obj 74 248 / 4095;
#X obj 218 253 / 4095;
#X obj 221 225 r adc1;
#X obj 218 279 * 4000;
#X obj 417 190 / 4095;
#X obj 420 162 r adc2;
#X msg 204 318 \; pd dsp 1 \;;
#X obj 181 190 send metro-trigger;
#X text 215 122 metro trigger;
#X text 329 5 TT Knobs;
#X text 349 124 pitch;
#X obj 334 140 hsl 128 15 0 1 0 0 empty empty empty -2 -8 0 10 -262144
-1 -1 0 1;
#X msg 331 103 0;
#X obj 330 183 + 1;
#X obj 330 161 * 3;
#X obj 331 230 send pitch;
#X msg 19 102 1;
#X obj 81 303 -;
#X obj 79 274 t b f;
#X msg 34 250 1;
#N canvas 70 96 971 656 grainline-1 0;
#X obj 586 18 tedium_input 23;
#X text 689 16 tact switches #0-2:;
#X obj 636 45 tedium_input 25;
#X obj 694 73 tedium_input 24;
#X text 819 15 (panel switches);
#X obj 154 613 dac~;
#X obj 267 21 adc~;
#X obj 168 557 -;
#X msg 168 502 1;
#X obj 153 584 *~;
#X obj 200 584 *~;
#X text 298 525 spread grain in the stereophonic space;
#X obj 486 72 receive amp;
#X floatatom 486 92 5 0 0 0 - - -;
#X obj 486 138 line~;
#X msg 486 115 \$1 20;
#X obj 266 70 hip~ 5;
#X text 372 71 highpass filter;
#X obj 321 70 hip~ 5;
#X msg 334 313 resize \$1;
#X obj 294 213 samplerate~;
#X floatatom 296 237 5 0 0 0 - - -;
#X text 371 210 report current sample rate of the patch;
#X text 337 257 = 1 second of table size;
#X text 275 285 * 1 \, 2 \, 3 \, ecc. = table size 1 \, 2... seconds
;
#X text 336 242 samples here;
#X text 151 397 read from 0 to 1 @ 0 to the sample dimension of the
table;
#X obj 531 438 cos~;
#X obj 531 392 *~ 0.5;
#X obj 530 415 -~ 0.25;
#X text 583 389 cos~ is a sinewave table \; who start from 1 \, at
the mid of the table is -1 \, and in the end again 1;
#X text 568 438 this is why a phasor*0.5 read mid of the table \; and
-0.25 start read from 0 instead of 1;
#X text 530 366 envelope;
#X obj 113 471 *~;
#X obj 114 357 line~;
#X obj 115 307 pack f f f;
#X msg 114 331 \$1 \, \$2 \$3;
#X msg 102 261 0;
#X obj 210 473 t b b;
#X obj 237 501 random 1000;
#X obj 237 529 / 1000;
#X obj 57 43 receive grain-lenght;
#X obj 57 127 * 1000;
#X floatatom 0 194 5 0 0 0 - - -;
#X msg 139 262 1;
#X floatatom 269 261 5 0 0 0 - - -;
#X floatatom 243 313 5 0 0 0 - - -;
#X obj 81 232 t b b b;
#X obj 243 286 *;
#X obj 114 396 *~;
#X obj 197 21 r initbang;
#X obj 197 45 tgl 15 0 empty empty empty 17 7 0 10 -262144 -1 -1 1
1;
#X obj 125 201 metro 1000;
#X obj 107 70 receive metro-trigger;
#X obj 111 126 +;
#X floatatom 111 150 5 0 0 0 - - -;
#X obj 107 99 random;
#X obj 586 47 bng 15 250 50 0 empty empty empty 17 7 0 10 -262144 -1
-1;
#X obj 558 47 bng 15 250 50 0 empty empty empty 17 7 0 10 -262144 -1
-1;
#X obj 11 19 receive pitch;
#X obj 11 128 t b f;
#X obj 11 170 /;
#X obj 508 18 r initbang;
#X obj 301 335 s \$0-sampling-1;
#X text 263 166 the array graphical array stored inside the object
(open);
#X text 298 102 write on the array when bang;
#X text 402 325 resize the array (with the sample rate \, here);
#X obj 265 147 table \$0-sampling-1;
#X obj 265 122 tabwrite~ \$0-sampling-1;
#X obj 114 422 tabread4~ \$0-sampling-1;
#X text 261 422 read from the array;
#X text 189 613 digital to analog converter (out);
#X text 302 19 analog to digital converter (in);
#X connect 0 0 57 0;
#X connect 6 0 16 0;
#X connect 6 1 18 0;
#X connect 7 0 9 1;
#X connect 8 0 7 0;
#X connect 9 0 5 0;
#X connect 10 0 5 1;
#X connect 12 0 13 0;
#X connect 13 0 15 0;
#X connect 15 0 14 0;
#X connect 16 0 68 0;
#X connect 18 0 68 0;
#X connect 19 0 63 0;
#X connect 20 0 21 0;
#X connect 21 0 19 0;
#X connect 21 0 48 0;
#X connect 27 0 33 1;
#X connect 28 0 29 0;
#X connect 29 0 27 0;
#X connect 33 0 9 0;
#X connect 33 0 10 0;
#X connect 34 0 28 0;
#X connect 34 0 49 0;
#X connect 35 0 36 0;
#X connect 36 0 34 0;
#X connect 37 0 35 0;
#X connect 38 0 8 0;
#X connect 38 1 39 0;
#X connect 39 0 40 0;
#X connect 40 0 10 1;
#X connect 40 0 7 1;
#X connect 41 0 42 0;
#X connect 41 0 45 0;
#X connect 42 0 61 0;
#X connect 43 0 35 2;
#X connect 43 0 54 1;
#X connect 44 0 35 1;
#X connect 45 0 48 1;
#X connect 46 0 49 1;
#X connect 47 0 37 0;
#X connect 47 1 44 0;
#X connect 47 2 48 0;
#X connect 48 0 46 0;
#X connect 49 0 69 0;
#X connect 50 0 51 0;
#X connect 50 0 20 0;
#X connect 51 0 52 0;
#X connect 52 0 38 0;
#X connect 52 0 47 0;
#X connect 52 0 56 0;
#X connect 53 0 56 1;
#X connect 54 0 55 0;
#X connect 55 0 52 1;
#X connect 56 0 54 0;
#X connect 57 0 68 0;
#X connect 58 0 68 0;
#X connect 59 0 60 0;
#X connect 60 0 61 0;
#X connect 60 1 61 1;
#X connect 61 0 43 0;
#X connect 62 0 58 0;
#X connect 69 0 33 0;
#X restore 317 301 pd grainline-1;
#X text 314 325 subpatch with 1 voice of the granulation algorithm
;
#X msg 482 288 \; pd-grainline-1 vis 1;
#X obj 482 263 r initbang;
#X text 552 262 open the subpatch;
#X connect 1 0 2 0;
#X connect 2 0 0 0;
#X connect 3 0 4 0;
#X connect 4 0 48 0;
#X connect 7 0 3 0;
#X connect 9 0 56 0;
#X connect 10 0 13 0;
#X connect 13 0 57 0;
#X connect 13 0 7 0;
#X connect 13 0 53 0;
#X connect 13 0 47 0;
#X connect 13 0 11 0;
#X connect 22 0 26 0;
#X connect 23 0 22 0;
#X connect 23 0 24 0;
#X connect 23 0 25 0;
#X connect 23 0 38 0;
#X connect 23 0 37 0;
#X connect 25 0 26 0;
#X connect 26 0 14 0;
#X connect 26 1 15 0;
#X connect 26 2 16 0;
#X connect 26 3 17 0;
#X connect 26 4 18 0;
#X connect 26 5 19 0;
#X connect 26 6 20 0;
#X connect 26 7 21 0;
#X connect 27 0 33 0;
#X connect 28 0 33 1;
#X connect 29 0 33 2;
#X connect 30 0 33 3;
#X connect 31 0 33 4;
#X connect 32 0 33 5;
#X connect 33 0 34 0;
#X connect 35 0 33 6;
#X connect 36 0 33 7;
#X connect 37 0 26 0;
#X connect 38 0 26 0;
#X connect 40 0 41 0;
#X connect 41 0 59 0;
#X connect 42 0 44 0;
#X connect 43 0 42 0;
#X connect 44 0 3 0;
#X connect 45 0 52 0;
#X connect 46 0 45 0;
#X connect 52 0 55 0;
#X connect 53 0 52 0;
#X connect 54 0 9 0;
#X connect 55 0 54 0;
#X connect 57 0 1 0;
#X connect 58 0 1 0;
#X connect 59 0 60 0;
#X connect 59 1 58 1;
#X connect 60 0 58 0;
#X connect 64 0 63 0;
