#N canvas 91 105 1116 451 10;
#X obj 15 194 send grain-lenght;
#X obj 18 148 hsl 128 15 1 0.001 0 0 empty empty empty -2 -8 0 10 -262144
-1 -1 0 1;
#X floatatom 15 172 5 0 0 0 - - -;
#X obj 157 148 hsl 128 15 1000 0 0 0 empty empty empty -2 -8 0 10 -262144
-1 -1 0 1;
#X floatatom 154 169 5 0 0 0 - - -;
#X text 37 127 grain dimension;
#X text 67 166 10 to 1000 ms;
#X text 56 368 start the dsp;
#X obj 16 35 loadbang;
#X obj 356 104 s initbang;
#X text 14 13 send the trigger;
#X obj 16 61 delay 300;
#X obj 922 162 s adc0;
#X obj 966 161 s adc1;
#X obj 1010 161 s adc2;
#X obj 1053 161 s adc3;
#X obj 923 209 s adc4;
#X obj 967 208 s adc5;
#X obj 1011 208 s adc6;
#X obj 1055 208 s adc7;
#X msg 789 58 open;
#X obj 789 30 r initbang;
#X msg 978 59 open adc;
#X obj 921 108 metro 10;
#X obj 921 133 terminal_tedium_adc;
#X obj 923 183 r adc0;
#X obj 966 183 r adc1;
#X obj 1010 183 r adc2;
#X obj 1053 183 r adc3;
#X obj 922 232 r adc4;
#X obj 967 232 r adc5;
#X obj 920 261 pack f f f f f f f f;
#X obj 981 289 print adc:;
#X obj 1011 232 r adc6;
#X obj 1057 231 r adc7;
#X msg 905 59 smooth 16;
#X msg 831 59 deadband 5;
#X text 68 386 sum and dac;
#X obj 74 225 r adc0;
#X obj 71 253 / 4095;
#X obj 172 225 r adc1;
#X obj 368 196 / 4095;
#X obj 368 170 r adc2;
#X msg 144 367 \; pd dsp 1 \;;
#X obj 154 195 send metro-trigger;
#X text 188 127 metro trigger;
#X text 790 11 TT Knobs;
#X msg 16 107 1;
#X obj 78 308 -;
#X obj 76 279 t b f;
#X msg 31 255 1;
#X text 607 148 voices of the granulation algorithm:;
#X obj 341 34 tedium_input 23;
#X text 339 11 tact switches #0-2:;
#X text 469 10 (panel switches);
#X obj 341 60 send trigger-global;
#X obj 471 131 bng 15 250 50 0 empty empty empty 17 7 0 10 -262144
-1 -1;
#X obj 471 34 tedium_input 25;
#X obj 471 60 send trigger-local-main;
#X obj 471 104 receive trigger-local-main;
#X obj 205 328 * 1000;
#X msg 155 109 1000;
#X obj 172 248 / 4095;
#X obj 179 303 -;
#X obj 177 274 t b f;
#X msg 132 250 1;
#X text 142 423 digital to analog converter (out);
#X floatatom 293 313 5 0 0 0 - - -;
#X obj 293 359 line~;
#X msg 293 336 \$1 20;
#X obj 331 393 *~;
#X obj 358 393 *~;
#X obj 352 421 dac~;
#X floatatom 292 174 5 0 0 0 - - -;
#X obj 292 248 / 4095;
#X obj 295 148 hsl 128 15 0 1 0 0 empty empty empty -2 -8 0 10 -262144
-1 -1 0 1;
#X text 471 83 voice trigger selection;
#X text 320 128 amplitude grains;
#X obj 292 196 send amp-g;
#X obj 345 247 / 4095;
#X obj 345 221 r adc3;
#X obj 293 293 receive amp-g;
#X text 292 272 amplitude grains;
#X obj 292 222 r adc4;
#X obj 620 33 tedium_input 24;
#X obj 394 246 / 4095;
#X obj 394 221 r adc5;
#X obj 332 313 catch~ out1;
#X obj 357 334 catch~ out2;
#X obj 558 170 + 1;
#X floatatom 471 213 5 0 0 0 - - -;
#X msg 514 170 0;
#X obj 487 241 send counter;
#X obj 471 169 f;
#X msg 292 111 1;
#X obj 315 34 bng 15 250 50 0 empty empty empty 17 7 0 10 -262144 -1
-1;
#X obj 574 34 bng 15 250 50 0 empty empty empty 17 7 0 10 -262144 -1
-1;
#X text 696 302 6-TAPES;
#X text 542 328 This granular algorithm have 6 indipendent tapes. 1
second that you can record per tape. For each tape you can read a section
that goes from 1 millisecond to the full recording of 1 second;
#X obj 635 173 1voice-6tapes;
#X obj 723 173 1voice-6tapes;
#X obj 635 195 1voice-6tapes;
#X obj 635 218 1voice-6tapes;
#X obj 724 195 1voice-6tapes;
#X obj 724 218 1voice-6tapes;
#X obj 514 146 select 5;
#X connect 1 0 2 0;
#X connect 2 0 0 0;
#X connect 3 0 4 0;
#X connect 4 0 44 0;
#X connect 8 0 11 0;
#X connect 11 0 47 0;
#X connect 11 0 61 0;
#X connect 11 0 43 0;
#X connect 11 0 9 0;
#X connect 11 0 94 0;
#X connect 20 0 24 0;
#X connect 21 0 20 0;
#X connect 21 0 22 0;
#X connect 21 0 23 0;
#X connect 21 0 36 0;
#X connect 21 0 35 0;
#X connect 23 0 24 0;
#X connect 24 0 12 0;
#X connect 24 1 13 0;
#X connect 24 2 14 0;
#X connect 24 3 15 0;
#X connect 24 4 16 0;
#X connect 24 5 17 0;
#X connect 24 6 18 0;
#X connect 24 7 19 0;
#X connect 25 0 31 0;
#X connect 26 0 31 1;
#X connect 27 0 31 2;
#X connect 28 0 31 3;
#X connect 29 0 31 4;
#X connect 30 0 31 5;
#X connect 31 0 32 0;
#X connect 33 0 31 6;
#X connect 34 0 31 7;
#X connect 35 0 24 0;
#X connect 36 0 24 0;
#X connect 38 0 39 0;
#X connect 39 0 49 0;
#X connect 40 0 62 0;
#X connect 41 0 75 0;
#X connect 42 0 41 0;
#X connect 47 0 1 0;
#X connect 48 0 1 0;
#X connect 49 0 50 0;
#X connect 49 1 48 1;
#X connect 50 0 48 0;
#X connect 52 0 55 0;
#X connect 56 0 93 0;
#X connect 57 0 58 0;
#X connect 59 0 56 0;
#X connect 60 0 3 0;
#X connect 61 0 3 0;
#X connect 62 0 64 0;
#X connect 63 0 60 0;
#X connect 64 0 65 0;
#X connect 64 1 63 1;
#X connect 65 0 63 0;
#X connect 67 0 69 0;
#X connect 68 0 70 1;
#X connect 68 0 71 1;
#X connect 69 0 68 0;
#X connect 70 0 72 0;
#X connect 71 0 72 1;
#X connect 73 0 78 0;
#X connect 75 0 73 0;
#X connect 80 0 79 0;
#X connect 81 0 67 0;
#X connect 83 0 74 0;
#X connect 86 0 85 0;
#X connect 87 0 70 0;
#X connect 88 0 71 0;
#X connect 89 0 93 1;
#X connect 90 0 92 0;
#X connect 91 0 93 1;
#X connect 93 0 90 0;
#X connect 93 0 105 0;
#X connect 94 0 75 0;
#X connect 95 0 55 0;
#X connect 96 0 58 0;
#X connect 105 0 91 0;
#X connect 105 1 89 0;
