#N canvas 70 122 1148 565 10;
#X obj 11 137 send grain-lenght;
#X obj 14 91 hsl 128 15 1 0.001 0 0 empty empty empty -2 -8 0 10 -262144
-1 -1 0 1;
#X floatatom 11 115 5 0 0 0 - - -;
#X obj 153 91 hsl 128 15 1000 0 0 0 empty empty empty -2 -8 0 10 -262144
-1 -1 0 1;
#X floatatom 150 112 5 0 0 0 - - -;
#X text 33 70 grain dimension;
#X text 63 109 10 to 1000 ms;
#X text 56 300 start the dsp;
#X floatatom 288 159 5 0 0 0 - - -;
#X obj 125 -24 loadbang;
#X obj 246 -28 s initbang;
#X text 123 -46 send the trigger;
#X obj 125 2 delay 300;
#X obj 918 105 s adc0;
#X obj 962 104 s adc1;
#X obj 1006 104 s adc2;
#X obj 1049 104 s adc3;
#X obj 919 152 s adc4;
#X obj 963 151 s adc5;
#X obj 1007 151 s adc6;
#X obj 1051 151 s adc7;
#X msg 785 1 open;
#X obj 785 -27 r initbang;
#X msg 974 2 open adc;
#X obj 917 51 metro 10;
#X obj 917 76 terminal_tedium_adc;
#X obj 919 126 r adc0;
#X obj 962 126 r adc1;
#X obj 1006 126 r adc2;
#X obj 1049 126 r adc3;
#X obj 918 175 r adc4;
#X obj 963 175 r adc5;
#X obj 916 201 pack f f f f f f f f;
#X obj 976 226 print adc:;
#X obj 1007 175 r adc6;
#X obj 1053 174 r adc7;
#X msg 901 2 smooth 16;
#X msg 827 2 deadband 5;
#X text 68 318 sum and dac;
#X obj 70 168 r adc0;
#X obj 67 196 / 4095;
#X obj 168 168 r adc1;
#X obj 381 140 / 4095;
#X obj 381 114 r adc2;
#X msg 144 299 \; pd dsp 1 \;;
#X obj 150 138 send metro-trigger;
#X text 184 70 metro trigger;
#X text 786 -46 TT Knobs;
#X text 317 70 pitch;
#X obj 291 91 hsl 128 15 0 1 0 0 empty empty empty -2 -8 0 10 -262144
-1 -1 0 1;
#X msg 288 54 0;
#X obj 287 134 + 1;
#X obj 288 181 send pitch;
#X msg 12 50 1;
#X obj 74 251 -;
#X obj 72 222 t b f;
#X msg 27 198 1;
#N canvas 70 97 971 620 grainline-1 0;
#X obj 267 21 adc~;
#X obj 168 529 -;
#X msg 168 502 1;
#X obj 153 556 *~;
#X obj 200 556 *~;
#X text 298 525 spread grain in the stereophonic space;
#X obj 266 70 hip~ 5;
#X text 372 71 highpass filter;
#X obj 321 70 hip~ 5;
#X msg 334 313 resize \$1;
#X obj 294 213 samplerate~;
#X floatatom 296 237 5 0 0 0 - - -;
#X text 371 210 report current sample rate of the patch;
#X text 337 257 = 1 second of table size;
#X text 275 285 * 1 \, 2 \, 3 \, ecc. = table size 1 \, 2... seconds
;
#X text 336 242 samples here;
#X text 151 397 read from 0 to 1 @ 0 to the sample dimension of the
table;
#X obj 531 438 cos~;
#X obj 531 392 *~ 0.5;
#X obj 530 415 -~ 0.25;
#X text 583 389 cos~ is a sinewave table \; who start from 1 \, at
the mid of the table is -1 \, and in the end again 1;
#X text 568 438 this is why a phasor*0.5 read mid of the table \; and
-0.25 start read from 0 instead of 1;
#X text 530 366 envelope;
#X obj 113 471 *~;
#X obj 114 357 line~;
#X obj 115 307 pack f f f;
#X msg 114 331 \$1 \, \$2 \$3;
#X msg 102 261 0;
#X obj 210 473 t b b;
#X obj 237 501 random 1000;
#X obj 237 529 / 1000;
#X obj 57 43 receive grain-lenght;
#X obj 57 127 * 1000;
#X floatatom 0 194 5 0 0 0 - - -;
#X msg 139 262 1;
#X floatatom 269 261 5 0 0 0 - - -;
#X floatatom 243 313 5 0 0 0 - - -;
#X obj 81 232 t b b b;
#X obj 243 286 *;
#X obj 114 396 *~;
#X obj 197 21 r initbang;
#X obj 197 45 tgl 15 0 empty empty empty 17 7 0 10 -262144 -1 -1 1
1;
#X obj 125 201 metro 1000;
#X obj 107 70 receive metro-trigger;
#X obj 111 126 +;
#X floatatom 111 150 5 0 0 0 - - -;
#X obj 107 99 random;
#X obj 586 47 bng 15 250 50 0 empty empty empty 17 7 0 10 -262144 -1
-1;
#X obj 558 47 bng 15 250 50 0 empty empty empty 17 7 0 10 -262144 -1
-1;
#X obj 11 19 receive pitch;
#X obj 11 128 t b f;
#X obj 11 170 /;
#X obj 508 18 r initbang;
#X obj 301 335 s \$0-sampling-1;
#X text 263 166 the array graphical array stored inside the object
(open);
#X text 298 102 write on the array when bang;
#X text 402 325 resize the array (with the sample rate \, here);
#X obj 265 147 table \$0-sampling-1;
#X obj 265 122 tabwrite~ \$0-sampling-1;
#X obj 114 422 tabread4~ \$0-sampling-1;
#X text 261 422 read from the array;
#X text 302 19 analog to digital converter (in);
#X obj 586 18 receive trigger-global;
#X obj 730 18 r trig-local-1;
#X obj 201 582 outlet~;
#X obj 152 582 outlet~;
#X text 251 581 (out);
#X connect 0 0 6 0;
#X connect 0 1 8 0;
#X connect 1 0 3 1;
#X connect 2 0 1 0;
#X connect 3 0 65 0;
#X connect 4 0 64 0;
#X connect 6 0 58 0;
#X connect 8 0 58 0;
#X connect 9 0 53 0;
#X connect 10 0 11 0;
#X connect 11 0 9 0;
#X connect 11 0 38 0;
#X connect 17 0 23 1;
#X connect 18 0 19 0;
#X connect 19 0 17 0;
#X connect 23 0 3 0;
#X connect 23 0 4 0;
#X connect 24 0 18 0;
#X connect 24 0 39 0;
#X connect 25 0 26 0;
#X connect 26 0 24 0;
#X connect 27 0 25 0;
#X connect 28 0 2 0;
#X connect 28 1 29 0;
#X connect 29 0 30 0;
#X connect 30 0 4 1;
#X connect 30 0 1 1;
#X connect 31 0 32 0;
#X connect 31 0 35 0;
#X connect 32 0 51 0;
#X connect 33 0 25 2;
#X connect 33 0 44 1;
#X connect 34 0 25 1;
#X connect 35 0 38 1;
#X connect 36 0 39 1;
#X connect 37 0 27 0;
#X connect 37 1 34 0;
#X connect 37 2 38 0;
#X connect 38 0 36 0;
#X connect 39 0 59 0;
#X connect 40 0 41 0;
#X connect 40 0 10 0;
#X connect 41 0 42 0;
#X connect 42 0 28 0;
#X connect 42 0 37 0;
#X connect 42 0 46 0;
#X connect 43 0 46 1;
#X connect 44 0 45 0;
#X connect 45 0 42 1;
#X connect 46 0 44 0;
#X connect 47 0 58 0;
#X connect 48 0 58 0;
#X connect 49 0 50 0;
#X connect 50 0 51 0;
#X connect 50 1 51 1;
#X connect 51 0 33 0;
#X connect 52 0 48 0;
#X connect 59 0 23 0;
#X connect 62 0 47 0;
#X connect 63 0 47 0;
#X restore 18 362 pd grainline-1;
#X text 16 340 voices of the granulation algorithm:;
#X obj 337 -23 tedium_input 23;
#X text 335 -46 tact switches #0-2:;
#X text 465 -47 (panel switches);
#X obj 337 3 send trigger-global;
#X obj 318 270 + 1;
#X obj 254 320 hradio 14 1 0 8 empty empty empty 0 -8 0 10 -262144
-1 -1 0;
#X obj 286 247 bng 15 250 50 0 empty empty empty 17 7 0 10 -262144
-1 -1;
#X obj 296 369 s trig-local-1;
#X obj 312 394 s trig-local-2;
#X obj 328 419 s trig-local-3;
#X obj 344 446 s trig-local-4;
#X obj 286 270 f;
#N canvas 70 96 971 656 grainline-2 0;
#X obj 267 21 adc~;
#X obj 168 557 -;
#X msg 168 502 1;
#X obj 153 584 *~;
#X obj 200 584 *~;
#X text 298 525 spread grain in the stereophonic space;
#X obj 266 70 hip~ 5;
#X text 372 71 highpass filter;
#X obj 321 70 hip~ 5;
#X msg 334 313 resize \$1;
#X obj 294 213 samplerate~;
#X floatatom 296 237 5 0 0 0 - - -;
#X text 371 210 report current sample rate of the patch;
#X text 337 257 = 1 second of table size;
#X text 275 285 * 1 \, 2 \, 3 \, ecc. = table size 1 \, 2... seconds
;
#X text 336 242 samples here;
#X text 151 397 read from 0 to 1 @ 0 to the sample dimension of the
table;
#X obj 531 438 cos~;
#X obj 531 392 *~ 0.5;
#X obj 530 415 -~ 0.25;
#X text 583 389 cos~ is a sinewave table \; who start from 1 \, at
the mid of the table is -1 \, and in the end again 1;
#X text 568 438 this is why a phasor*0.5 read mid of the table \; and
-0.25 start read from 0 instead of 1;
#X text 530 366 envelope;
#X obj 113 471 *~;
#X obj 114 357 line~;
#X obj 115 307 pack f f f;
#X msg 114 331 \$1 \, \$2 \$3;
#X msg 102 261 0;
#X obj 210 473 t b b;
#X obj 237 501 random 1000;
#X obj 237 529 / 1000;
#X obj 57 43 receive grain-lenght;
#X obj 57 127 * 1000;
#X floatatom 0 194 5 0 0 0 - - -;
#X msg 139 262 1;
#X floatatom 269 261 5 0 0 0 - - -;
#X floatatom 243 313 5 0 0 0 - - -;
#X obj 81 232 t b b b;
#X obj 243 286 *;
#X obj 114 396 *~;
#X obj 197 21 r initbang;
#X obj 197 45 tgl 15 0 empty empty empty 17 7 0 10 -262144 -1 -1 1
1;
#X obj 125 201 metro 1000;
#X obj 107 70 receive metro-trigger;
#X obj 111 126 +;
#X floatatom 111 150 5 0 0 0 - - -;
#X obj 107 99 random;
#X obj 586 47 bng 15 250 50 0 empty empty empty 17 7 0 10 -262144 -1
-1;
#X obj 558 47 bng 15 250 50 0 empty empty empty 17 7 0 10 -262144 -1
-1;
#X obj 11 19 receive pitch;
#X obj 11 128 t b f;
#X obj 11 170 /;
#X obj 508 18 r initbang;
#X text 263 166 the array graphical array stored inside the object
(open);
#X text 298 102 write on the array when bang;
#X text 402 325 resize the array (with the sample rate \, here);
#X text 261 422 read from the array;
#X text 302 19 analog to digital converter (in);
#X obj 586 18 receive trigger-global;
#X obj 730 18 r trig-local-2;
#X obj 265 122 tabwrite~ \$0-sampling-2;
#X obj 265 147 table \$0-sampling-2;
#X obj 114 422 tabread4~ \$0-sampling-2;
#X obj 301 335 s \$0-sampling-2;
#X obj 202 610 outlet~;
#X obj 153 610 outlet~;
#X text 252 609 (out);
#X connect 0 0 6 0;
#X connect 0 1 8 0;
#X connect 1 0 3 1;
#X connect 2 0 1 0;
#X connect 3 0 65 0;
#X connect 4 0 64 0;
#X connect 6 0 60 0;
#X connect 8 0 60 0;
#X connect 9 0 63 0;
#X connect 10 0 11 0;
#X connect 11 0 9 0;
#X connect 11 0 38 0;
#X connect 17 0 23 1;
#X connect 18 0 19 0;
#X connect 19 0 17 0;
#X connect 23 0 3 0;
#X connect 23 0 4 0;
#X connect 24 0 18 0;
#X connect 24 0 39 0;
#X connect 25 0 26 0;
#X connect 26 0 24 0;
#X connect 27 0 25 0;
#X connect 28 0 2 0;
#X connect 28 1 29 0;
#X connect 29 0 30 0;
#X connect 30 0 4 1;
#X connect 30 0 1 1;
#X connect 31 0 32 0;
#X connect 31 0 35 0;
#X connect 32 0 51 0;
#X connect 33 0 25 2;
#X connect 33 0 44 1;
#X connect 34 0 25 1;
#X connect 35 0 38 1;
#X connect 36 0 39 1;
#X connect 37 0 27 0;
#X connect 37 1 34 0;
#X connect 37 2 38 0;
#X connect 38 0 36 0;
#X connect 39 0 62 0;
#X connect 40 0 41 0;
#X connect 40 0 10 0;
#X connect 41 0 42 0;
#X connect 42 0 28 0;
#X connect 42 0 37 0;
#X connect 42 0 46 0;
#X connect 43 0 46 1;
#X connect 44 0 45 0;
#X connect 45 0 42 1;
#X connect 46 0 44 0;
#X connect 47 0 60 0;
#X connect 48 0 60 0;
#X connect 49 0 50 0;
#X connect 50 0 51 0;
#X connect 50 1 51 1;
#X connect 51 0 33 0;
#X connect 52 0 48 0;
#X connect 58 0 47 0;
#X connect 59 0 47 0;
#X connect 62 0 23 0;
#X restore 18 386 pd grainline-2;
#N canvas 204 96 971 655 grainline-3 0;
#X obj 267 21 adc~;
#X obj 168 557 -;
#X msg 168 502 1;
#X obj 153 584 *~;
#X obj 200 584 *~;
#X text 298 525 spread grain in the stereophonic space;
#X obj 266 70 hip~ 5;
#X text 372 71 highpass filter;
#X obj 321 70 hip~ 5;
#X msg 334 313 resize \$1;
#X obj 294 213 samplerate~;
#X floatatom 296 237 5 0 0 0 - - -;
#X text 371 210 report current sample rate of the patch;
#X text 337 257 = 1 second of table size;
#X text 275 285 * 1 \, 2 \, 3 \, ecc. = table size 1 \, 2... seconds
;
#X text 336 242 samples here;
#X text 151 397 read from 0 to 1 @ 0 to the sample dimension of the
table;
#X obj 531 438 cos~;
#X obj 531 392 *~ 0.5;
#X obj 530 415 -~ 0.25;
#X text 583 389 cos~ is a sinewave table \; who start from 1 \, at
the mid of the table is -1 \, and in the end again 1;
#X text 568 438 this is why a phasor*0.5 read mid of the table \; and
-0.25 start read from 0 instead of 1;
#X text 530 366 envelope;
#X obj 113 471 *~;
#X obj 114 357 line~;
#X obj 115 307 pack f f f;
#X msg 114 331 \$1 \, \$2 \$3;
#X msg 102 261 0;
#X obj 210 473 t b b;
#X obj 237 501 random 1000;
#X obj 237 529 / 1000;
#X obj 57 43 receive grain-lenght;
#X obj 57 127 * 1000;
#X floatatom 0 194 5 0 0 0 - - -;
#X msg 139 262 1;
#X floatatom 269 261 5 0 0 0 - - -;
#X floatatom 243 313 5 0 0 0 - - -;
#X obj 81 232 t b b b;
#X obj 243 286 *;
#X obj 114 396 *~;
#X obj 197 21 r initbang;
#X obj 197 45 tgl 15 0 empty empty empty 17 7 0 10 -262144 -1 -1 1
1;
#X obj 125 201 metro 1000;
#X obj 107 70 receive metro-trigger;
#X obj 111 126 +;
#X floatatom 111 150 5 0 0 0 - - -;
#X obj 107 99 random;
#X obj 586 47 bng 15 250 50 0 empty empty empty 17 7 0 10 -262144 -1
-1;
#X obj 558 47 bng 15 250 50 0 empty empty empty 17 7 0 10 -262144 -1
-1;
#X obj 11 19 receive pitch;
#X obj 11 128 t b f;
#X obj 11 170 /;
#X obj 508 18 r initbang;
#X text 263 166 the array graphical array stored inside the object
(open);
#X text 298 102 write on the array when bang;
#X text 402 325 resize the array (with the sample rate \, here);
#X text 261 422 read from the array;
#X text 302 19 analog to digital converter (in);
#X obj 586 18 receive trigger-global;
#X obj 730 18 r trig-local-3;
#X obj 265 122 tabwrite~ \$0-sampling-3;
#X obj 265 147 table \$0-sampling-3;
#X obj 114 422 tabread4~ \$0-sampling-3;
#X obj 301 335 s \$0-sampling-3;
#X obj 202 611 outlet~;
#X obj 153 611 outlet~;
#X text 252 610 (out);
#X connect 0 0 6 0;
#X connect 0 1 8 0;
#X connect 1 0 3 1;
#X connect 2 0 1 0;
#X connect 3 0 65 0;
#X connect 4 0 64 0;
#X connect 6 0 60 0;
#X connect 8 0 60 0;
#X connect 9 0 63 0;
#X connect 10 0 11 0;
#X connect 11 0 9 0;
#X connect 11 0 38 0;
#X connect 17 0 23 1;
#X connect 18 0 19 0;
#X connect 19 0 17 0;
#X connect 23 0 3 0;
#X connect 23 0 4 0;
#X connect 24 0 18 0;
#X connect 24 0 39 0;
#X connect 25 0 26 0;
#X connect 26 0 24 0;
#X connect 27 0 25 0;
#X connect 28 0 2 0;
#X connect 28 1 29 0;
#X connect 29 0 30 0;
#X connect 30 0 4 1;
#X connect 30 0 1 1;
#X connect 31 0 32 0;
#X connect 31 0 35 0;
#X connect 32 0 51 0;
#X connect 33 0 25 2;
#X connect 33 0 44 1;
#X connect 34 0 25 1;
#X connect 35 0 38 1;
#X connect 36 0 39 1;
#X connect 37 0 27 0;
#X connect 37 1 34 0;
#X connect 37 2 38 0;
#X connect 38 0 36 0;
#X connect 39 0 62 0;
#X connect 40 0 41 0;
#X connect 40 0 10 0;
#X connect 41 0 42 0;
#X connect 42 0 28 0;
#X connect 42 0 37 0;
#X connect 42 0 46 0;
#X connect 43 0 46 1;
#X connect 44 0 45 0;
#X connect 45 0 42 1;
#X connect 46 0 44 0;
#X connect 47 0 60 0;
#X connect 48 0 60 0;
#X connect 49 0 50 0;
#X connect 50 0 51 0;
#X connect 50 1 51 1;
#X connect 51 0 33 0;
#X connect 52 0 48 0;
#X connect 58 0 47 0;
#X connect 59 0 47 0;
#X connect 62 0 23 0;
#X restore 18 410 pd grainline-3;
#N canvas 117 96 971 656 grainline-4 0;
#X obj 267 21 adc~;
#X obj 168 557 -;
#X msg 168 502 1;
#X obj 153 584 *~;
#X obj 200 584 *~;
#X text 298 525 spread grain in the stereophonic space;
#X obj 266 70 hip~ 5;
#X text 372 71 highpass filter;
#X obj 321 70 hip~ 5;
#X msg 334 313 resize \$1;
#X obj 294 213 samplerate~;
#X floatatom 296 237 5 0 0 0 - - -;
#X text 371 210 report current sample rate of the patch;
#X text 337 257 = 1 second of table size;
#X text 275 285 * 1 \, 2 \, 3 \, ecc. = table size 1 \, 2... seconds
;
#X text 336 242 samples here;
#X text 151 397 read from 0 to 1 @ 0 to the sample dimension of the
table;
#X obj 531 438 cos~;
#X obj 531 392 *~ 0.5;
#X obj 530 415 -~ 0.25;
#X text 583 389 cos~ is a sinewave table \; who start from 1 \, at
the mid of the table is -1 \, and in the end again 1;
#X text 568 438 this is why a phasor*0.5 read mid of the table \; and
-0.25 start read from 0 instead of 1;
#X text 530 366 envelope;
#X obj 113 471 *~;
#X obj 114 357 line~;
#X obj 115 307 pack f f f;
#X msg 114 331 \$1 \, \$2 \$3;
#X msg 102 261 0;
#X obj 210 473 t b b;
#X obj 237 501 random 1000;
#X obj 237 529 / 1000;
#X obj 57 43 receive grain-lenght;
#X obj 57 127 * 1000;
#X floatatom 0 194 5 0 0 0 - - -;
#X msg 139 262 1;
#X floatatom 269 261 5 0 0 0 - - -;
#X floatatom 243 313 5 0 0 0 - - -;
#X obj 81 232 t b b b;
#X obj 243 286 *;
#X obj 114 396 *~;
#X obj 197 21 r initbang;
#X obj 197 45 tgl 15 0 empty empty empty 17 7 0 10 -262144 -1 -1 1
1;
#X obj 125 201 metro 1000;
#X obj 107 70 receive metro-trigger;
#X obj 111 126 +;
#X floatatom 111 150 5 0 0 0 - - -;
#X obj 107 99 random;
#X obj 586 47 bng 15 250 50 0 empty empty empty 17 7 0 10 -262144 -1
-1;
#X obj 558 47 bng 15 250 50 0 empty empty empty 17 7 0 10 -262144 -1
-1;
#X obj 11 19 receive pitch;
#X obj 11 128 t b f;
#X obj 11 170 /;
#X obj 508 18 r initbang;
#X text 263 166 the array graphical array stored inside the object
(open);
#X text 298 102 write on the array when bang;
#X text 402 325 resize the array (with the sample rate \, here);
#X text 261 422 read from the array;
#X text 302 19 analog to digital converter (in);
#X obj 586 18 receive trigger-global;
#X obj 265 122 tabwrite~ \$0-sampling-4;
#X obj 265 147 table \$0-sampling-4;
#X obj 730 18 r trig-local-4;
#X obj 301 335 s \$0-sampling-4;
#X obj 114 422 tabread4~ \$0-sampling-4;
#X obj 202 610 outlet~;
#X obj 153 610 outlet~;
#X text 252 609 (out);
#X connect 0 0 6 0;
#X connect 0 1 8 0;
#X connect 1 0 3 1;
#X connect 2 0 1 0;
#X connect 3 0 65 0;
#X connect 4 0 64 0;
#X connect 6 0 59 0;
#X connect 8 0 59 0;
#X connect 9 0 62 0;
#X connect 10 0 11 0;
#X connect 11 0 9 0;
#X connect 11 0 38 0;
#X connect 17 0 23 1;
#X connect 18 0 19 0;
#X connect 19 0 17 0;
#X connect 23 0 3 0;
#X connect 23 0 4 0;
#X connect 24 0 18 0;
#X connect 24 0 39 0;
#X connect 25 0 26 0;
#X connect 26 0 24 0;
#X connect 27 0 25 0;
#X connect 28 0 2 0;
#X connect 28 1 29 0;
#X connect 29 0 30 0;
#X connect 30 0 4 1;
#X connect 30 0 1 1;
#X connect 31 0 32 0;
#X connect 31 0 35 0;
#X connect 32 0 51 0;
#X connect 33 0 25 2;
#X connect 33 0 44 1;
#X connect 34 0 25 1;
#X connect 35 0 38 1;
#X connect 36 0 39 1;
#X connect 37 0 27 0;
#X connect 37 1 34 0;
#X connect 37 2 38 0;
#X connect 38 0 36 0;
#X connect 39 0 63 0;
#X connect 40 0 41 0;
#X connect 40 0 10 0;
#X connect 41 0 42 0;
#X connect 42 0 28 0;
#X connect 42 0 37 0;
#X connect 42 0 46 0;
#X connect 43 0 46 1;
#X connect 44 0 45 0;
#X connect 45 0 42 1;
#X connect 46 0 44 0;
#X connect 47 0 59 0;
#X connect 48 0 59 0;
#X connect 49 0 50 0;
#X connect 50 0 51 0;
#X connect 50 1 51 1;
#X connect 51 0 33 0;
#X connect 52 0 48 0;
#X connect 58 0 47 0;
#X connect 61 0 47 0;
#X connect 63 0 23 0;
#X restore 18 434 pd grainline-4;
#X obj 467 -23 tedium_input 25;
#X obj 467 3 send trigger-local-main;
#X obj 286 224 receive trigger-local-main;
#N canvas 175 96 971 656 grainline-5 0;
#X obj 267 21 adc~;
#X obj 168 557 -;
#X msg 168 502 1;
#X obj 153 584 *~;
#X obj 200 584 *~;
#X text 298 525 spread grain in the stereophonic space;
#X obj 266 70 hip~ 5;
#X text 372 71 highpass filter;
#X obj 321 70 hip~ 5;
#X msg 334 313 resize \$1;
#X obj 294 213 samplerate~;
#X floatatom 296 237 5 0 0 0 - - -;
#X text 371 210 report current sample rate of the patch;
#X text 337 257 = 1 second of table size;
#X text 275 285 * 1 \, 2 \, 3 \, ecc. = table size 1 \, 2... seconds
;
#X text 336 242 samples here;
#X text 151 397 read from 0 to 1 @ 0 to the sample dimension of the
table;
#X obj 531 438 cos~;
#X obj 531 392 *~ 0.5;
#X obj 530 415 -~ 0.25;
#X text 583 389 cos~ is a sinewave table \; who start from 1 \, at
the mid of the table is -1 \, and in the end again 1;
#X text 568 438 this is why a phasor*0.5 read mid of the table \; and
-0.25 start read from 0 instead of 1;
#X text 530 366 envelope;
#X obj 113 471 *~;
#X obj 114 357 line~;
#X obj 115 307 pack f f f;
#X msg 114 331 \$1 \, \$2 \$3;
#X msg 102 261 0;
#X obj 210 473 t b b;
#X obj 237 501 random 1000;
#X obj 237 529 / 1000;
#X obj 57 43 receive grain-lenght;
#X obj 57 127 * 1000;
#X floatatom 0 194 5 0 0 0 - - -;
#X msg 139 262 1;
#X floatatom 269 261 5 0 0 0 - - -;
#X floatatom 243 313 5 0 0 0 - - -;
#X obj 81 232 t b b b;
#X obj 243 286 *;
#X obj 114 396 *~;
#X obj 197 21 r initbang;
#X obj 197 45 tgl 15 0 empty empty empty 17 7 0 10 -262144 -1 -1 1
1;
#X obj 125 201 metro 1000;
#X obj 107 70 receive metro-trigger;
#X obj 111 126 +;
#X floatatom 111 150 5 0 0 0 - - -;
#X obj 107 99 random;
#X obj 586 47 bng 15 250 50 0 empty empty empty 17 7 0 10 -262144 -1
-1;
#X obj 558 47 bng 15 250 50 0 empty empty empty 17 7 0 10 -262144 -1
-1;
#X obj 11 19 receive pitch;
#X obj 11 128 t b f;
#X obj 11 170 /;
#X obj 508 18 r initbang;
#X text 263 166 the array graphical array stored inside the object
(open);
#X text 298 102 write on the array when bang;
#X text 402 325 resize the array (with the sample rate \, here);
#X text 261 422 read from the array;
#X text 302 19 analog to digital converter (in);
#X obj 586 18 receive trigger-global;
#X obj 301 335 s \$0-sampling-5;
#X obj 114 422 tabread4~ \$0-sampling-5;
#X obj 265 147 table \$0-sampling-5;
#X obj 265 122 tabwrite~ \$0-sampling-5;
#X obj 730 18 r trig-local-5;
#X obj 201 610 outlet~;
#X obj 152 610 outlet~;
#X text 251 609 (out);
#X connect 0 0 6 0;
#X connect 0 1 8 0;
#X connect 1 0 3 1;
#X connect 2 0 1 0;
#X connect 3 0 65 0;
#X connect 4 0 64 0;
#X connect 6 0 62 0;
#X connect 8 0 62 0;
#X connect 9 0 59 0;
#X connect 10 0 11 0;
#X connect 11 0 9 0;
#X connect 11 0 38 0;
#X connect 17 0 23 1;
#X connect 18 0 19 0;
#X connect 19 0 17 0;
#X connect 23 0 3 0;
#X connect 23 0 4 0;
#X connect 24 0 18 0;
#X connect 24 0 39 0;
#X connect 25 0 26 0;
#X connect 26 0 24 0;
#X connect 27 0 25 0;
#X connect 28 0 2 0;
#X connect 28 1 29 0;
#X connect 29 0 30 0;
#X connect 30 0 4 1;
#X connect 30 0 1 1;
#X connect 31 0 32 0;
#X connect 31 0 35 0;
#X connect 32 0 51 0;
#X connect 33 0 25 2;
#X connect 33 0 44 1;
#X connect 34 0 25 1;
#X connect 35 0 38 1;
#X connect 36 0 39 1;
#X connect 37 0 27 0;
#X connect 37 1 34 0;
#X connect 37 2 38 0;
#X connect 38 0 36 0;
#X connect 39 0 60 0;
#X connect 40 0 41 0;
#X connect 40 0 10 0;
#X connect 41 0 42 0;
#X connect 42 0 28 0;
#X connect 42 0 37 0;
#X connect 42 0 46 0;
#X connect 43 0 46 1;
#X connect 44 0 45 0;
#X connect 45 0 42 1;
#X connect 46 0 44 0;
#X connect 47 0 62 0;
#X connect 48 0 62 0;
#X connect 49 0 50 0;
#X connect 50 0 51 0;
#X connect 50 1 51 1;
#X connect 51 0 33 0;
#X connect 52 0 48 0;
#X connect 58 0 47 0;
#X connect 60 0 23 0;
#X connect 63 0 47 0;
#X restore 118 362 pd grainline-5;
#N canvas 165 96 971 656 grainline-6 0;
#X obj 267 21 adc~;
#X obj 168 557 -;
#X msg 168 502 1;
#X obj 153 584 *~;
#X obj 200 584 *~;
#X text 298 525 spread grain in the stereophonic space;
#X obj 266 70 hip~ 5;
#X text 372 71 highpass filter;
#X obj 321 70 hip~ 5;
#X msg 334 313 resize \$1;
#X obj 294 213 samplerate~;
#X floatatom 296 237 5 0 0 0 - - -;
#X text 371 210 report current sample rate of the patch;
#X text 337 257 = 1 second of table size;
#X text 275 285 * 1 \, 2 \, 3 \, ecc. = table size 1 \, 2... seconds
;
#X text 336 242 samples here;
#X text 151 397 read from 0 to 1 @ 0 to the sample dimension of the
table;
#X obj 531 438 cos~;
#X obj 531 392 *~ 0.5;
#X obj 530 415 -~ 0.25;
#X text 583 389 cos~ is a sinewave table \; who start from 1 \, at
the mid of the table is -1 \, and in the end again 1;
#X text 568 438 this is why a phasor*0.5 read mid of the table \; and
-0.25 start read from 0 instead of 1;
#X text 530 366 envelope;
#X obj 113 471 *~;
#X obj 114 357 line~;
#X obj 115 307 pack f f f;
#X msg 114 331 \$1 \, \$2 \$3;
#X msg 102 261 0;
#X obj 210 473 t b b;
#X obj 237 501 random 1000;
#X obj 237 529 / 1000;
#X obj 57 43 receive grain-lenght;
#X obj 57 127 * 1000;
#X floatatom 0 194 5 0 0 0 - - -;
#X msg 139 262 1;
#X floatatom 269 261 5 0 0 0 - - -;
#X floatatom 243 313 5 0 0 0 - - -;
#X obj 81 232 t b b b;
#X obj 243 286 *;
#X obj 114 396 *~;
#X obj 197 21 r initbang;
#X obj 197 45 tgl 15 0 empty empty empty 17 7 0 10 -262144 -1 -1 1
1;
#X obj 125 201 metro 1000;
#X obj 107 70 receive metro-trigger;
#X obj 111 126 +;
#X floatatom 111 150 5 0 0 0 - - -;
#X obj 107 99 random;
#X obj 586 47 bng 15 250 50 0 empty empty empty 17 7 0 10 -262144 -1
-1;
#X obj 558 47 bng 15 250 50 0 empty empty empty 17 7 0 10 -262144 -1
-1;
#X obj 11 19 receive pitch;
#X obj 11 128 t b f;
#X obj 11 170 /;
#X obj 508 18 r initbang;
#X text 263 166 the array graphical array stored inside the object
(open);
#X text 298 102 write on the array when bang;
#X text 402 325 resize the array (with the sample rate \, here);
#X text 261 422 read from the array;
#X text 302 19 analog to digital converter (in);
#X obj 586 18 receive trigger-global;
#X obj 114 422 tabread4~ \$0-sampling-6;
#X obj 301 335 s \$0-sampling-6;
#X obj 265 147 table \$0-sampling-6;
#X obj 265 122 tabwrite~ \$0-sampling-6;
#X obj 730 18 r trig-local-6;
#X obj 202 611 outlet~;
#X obj 153 611 outlet~;
#X text 252 610 (out);
#X connect 0 0 6 0;
#X connect 0 1 8 0;
#X connect 1 0 3 1;
#X connect 2 0 1 0;
#X connect 3 0 65 0;
#X connect 4 0 64 0;
#X connect 6 0 62 0;
#X connect 8 0 62 0;
#X connect 9 0 60 0;
#X connect 10 0 11 0;
#X connect 11 0 9 0;
#X connect 11 0 38 0;
#X connect 17 0 23 1;
#X connect 18 0 19 0;
#X connect 19 0 17 0;
#X connect 23 0 3 0;
#X connect 23 0 4 0;
#X connect 24 0 18 0;
#X connect 24 0 39 0;
#X connect 25 0 26 0;
#X connect 26 0 24 0;
#X connect 27 0 25 0;
#X connect 28 0 2 0;
#X connect 28 1 29 0;
#X connect 29 0 30 0;
#X connect 30 0 4 1;
#X connect 30 0 1 1;
#X connect 31 0 32 0;
#X connect 31 0 35 0;
#X connect 32 0 51 0;
#X connect 33 0 25 2;
#X connect 33 0 44 1;
#X connect 34 0 25 1;
#X connect 35 0 38 1;
#X connect 36 0 39 1;
#X connect 37 0 27 0;
#X connect 37 1 34 0;
#X connect 37 2 38 0;
#X connect 38 0 36 0;
#X connect 39 0 59 0;
#X connect 40 0 41 0;
#X connect 40 0 10 0;
#X connect 41 0 42 0;
#X connect 42 0 28 0;
#X connect 42 0 37 0;
#X connect 42 0 46 0;
#X connect 43 0 46 1;
#X connect 44 0 45 0;
#X connect 45 0 42 1;
#X connect 46 0 44 0;
#X connect 47 0 62 0;
#X connect 48 0 62 0;
#X connect 49 0 50 0;
#X connect 50 0 51 0;
#X connect 50 1 51 1;
#X connect 51 0 33 0;
#X connect 52 0 48 0;
#X connect 58 0 47 0;
#X connect 59 0 23 0;
#X connect 63 0 47 0;
#X restore 118 386 pd grainline-6;
#N canvas 165 96 971 656 grainline-7 0;
#X obj 267 21 adc~;
#X obj 168 557 -;
#X msg 168 502 1;
#X obj 153 584 *~;
#X obj 200 584 *~;
#X text 298 525 spread grain in the stereophonic space;
#X obj 266 70 hip~ 5;
#X text 372 71 highpass filter;
#X obj 321 70 hip~ 5;
#X msg 334 313 resize \$1;
#X obj 294 213 samplerate~;
#X floatatom 296 237 5 0 0 0 - - -;
#X text 371 210 report current sample rate of the patch;
#X text 337 257 = 1 second of table size;
#X text 275 285 * 1 \, 2 \, 3 \, ecc. = table size 1 \, 2... seconds
;
#X text 336 242 samples here;
#X text 151 397 read from 0 to 1 @ 0 to the sample dimension of the
table;
#X obj 531 438 cos~;
#X obj 531 392 *~ 0.5;
#X obj 530 415 -~ 0.25;
#X text 583 389 cos~ is a sinewave table \; who start from 1 \, at
the mid of the table is -1 \, and in the end again 1;
#X text 568 438 this is why a phasor*0.5 read mid of the table \; and
-0.25 start read from 0 instead of 1;
#X text 530 366 envelope;
#X obj 113 471 *~;
#X obj 114 357 line~;
#X obj 115 307 pack f f f;
#X msg 114 331 \$1 \, \$2 \$3;
#X msg 102 261 0;
#X obj 210 473 t b b;
#X obj 237 501 random 1000;
#X obj 237 529 / 1000;
#X obj 57 43 receive grain-lenght;
#X obj 57 127 * 1000;
#X floatatom 0 194 5 0 0 0 - - -;
#X msg 139 262 1;
#X floatatom 269 261 5 0 0 0 - - -;
#X floatatom 243 313 5 0 0 0 - - -;
#X obj 81 232 t b b b;
#X obj 243 286 *;
#X obj 114 396 *~;
#X obj 197 21 r initbang;
#X obj 197 45 tgl 15 0 empty empty empty 17 7 0 10 -262144 -1 -1 1
1;
#X obj 125 201 metro 1000;
#X obj 107 70 receive metro-trigger;
#X obj 111 126 +;
#X floatatom 111 150 5 0 0 0 - - -;
#X obj 107 99 random;
#X obj 586 47 bng 15 250 50 0 empty empty empty 17 7 0 10 -262144 -1
-1;
#X obj 558 47 bng 15 250 50 0 empty empty empty 17 7 0 10 -262144 -1
-1;
#X obj 11 19 receive pitch;
#X obj 11 128 t b f;
#X obj 11 170 /;
#X obj 508 18 r initbang;
#X text 263 166 the array graphical array stored inside the object
(open);
#X text 298 102 write on the array when bang;
#X text 402 325 resize the array (with the sample rate \, here);
#X text 261 422 read from the array;
#X text 302 19 analog to digital converter (in);
#X obj 586 18 receive trigger-global;
#X obj 114 422 tabread4~ \$0-sampling-7;
#X obj 301 335 s \$0-sampling-7;
#X obj 265 147 table \$0-sampling-7;
#X obj 265 122 tabwrite~ \$0-sampling-7;
#X obj 730 18 r trig-local-7;
#X obj 202 612 outlet~;
#X obj 153 612 outlet~;
#X text 252 611 (out);
#X connect 0 0 6 0;
#X connect 0 1 8 0;
#X connect 1 0 3 1;
#X connect 2 0 1 0;
#X connect 3 0 65 0;
#X connect 4 0 64 0;
#X connect 6 0 62 0;
#X connect 8 0 62 0;
#X connect 9 0 60 0;
#X connect 10 0 11 0;
#X connect 11 0 9 0;
#X connect 11 0 38 0;
#X connect 17 0 23 1;
#X connect 18 0 19 0;
#X connect 19 0 17 0;
#X connect 23 0 3 0;
#X connect 23 0 4 0;
#X connect 24 0 18 0;
#X connect 24 0 39 0;
#X connect 25 0 26 0;
#X connect 26 0 24 0;
#X connect 27 0 25 0;
#X connect 28 0 2 0;
#X connect 28 1 29 0;
#X connect 29 0 30 0;
#X connect 30 0 4 1;
#X connect 30 0 1 1;
#X connect 31 0 32 0;
#X connect 31 0 35 0;
#X connect 32 0 51 0;
#X connect 33 0 25 2;
#X connect 33 0 44 1;
#X connect 34 0 25 1;
#X connect 35 0 38 1;
#X connect 36 0 39 1;
#X connect 37 0 27 0;
#X connect 37 1 34 0;
#X connect 37 2 38 0;
#X connect 38 0 36 0;
#X connect 39 0 59 0;
#X connect 40 0 41 0;
#X connect 40 0 10 0;
#X connect 41 0 42 0;
#X connect 42 0 28 0;
#X connect 42 0 37 0;
#X connect 42 0 46 0;
#X connect 43 0 46 1;
#X connect 44 0 45 0;
#X connect 45 0 42 1;
#X connect 46 0 44 0;
#X connect 47 0 62 0;
#X connect 48 0 62 0;
#X connect 49 0 50 0;
#X connect 50 0 51 0;
#X connect 50 1 51 1;
#X connect 51 0 33 0;
#X connect 52 0 48 0;
#X connect 58 0 47 0;
#X connect 59 0 23 0;
#X connect 63 0 47 0;
#X restore 118 410 pd grainline-7;
#N canvas 70 112 971 656 grainline-8 0;
#X obj 267 21 adc~;
#X obj 168 557 -;
#X msg 168 502 1;
#X obj 153 584 *~;
#X obj 200 584 *~;
#X text 298 525 spread grain in the stereophonic space;
#X obj 266 70 hip~ 5;
#X text 372 71 highpass filter;
#X obj 321 70 hip~ 5;
#X msg 334 313 resize \$1;
#X obj 294 213 samplerate~;
#X floatatom 296 237 5 0 0 0 - - -;
#X text 371 210 report current sample rate of the patch;
#X text 337 257 = 1 second of table size;
#X text 275 285 * 1 \, 2 \, 3 \, ecc. = table size 1 \, 2... seconds
;
#X text 336 242 samples here;
#X text 151 397 read from 0 to 1 @ 0 to the sample dimension of the
table;
#X obj 531 438 cos~;
#X obj 531 392 *~ 0.5;
#X obj 530 415 -~ 0.25;
#X text 583 389 cos~ is a sinewave table \; who start from 1 \, at
the mid of the table is -1 \, and in the end again 1;
#X text 568 438 this is why a phasor*0.5 read mid of the table \; and
-0.25 start read from 0 instead of 1;
#X text 530 366 envelope;
#X obj 113 471 *~;
#X obj 114 357 line~;
#X obj 115 307 pack f f f;
#X msg 114 331 \$1 \, \$2 \$3;
#X msg 102 261 0;
#X obj 210 473 t b b;
#X obj 237 501 random 1000;
#X obj 237 529 / 1000;
#X obj 57 43 receive grain-lenght;
#X obj 57 127 * 1000;
#X floatatom 0 194 5 0 0 0 - - -;
#X msg 139 262 1;
#X floatatom 269 261 5 0 0 0 - - -;
#X floatatom 243 313 5 0 0 0 - - -;
#X obj 81 232 t b b b;
#X obj 243 286 *;
#X obj 114 396 *~;
#X obj 197 21 r initbang;
#X obj 197 45 tgl 15 0 empty empty empty 17 7 0 10 -262144 -1 -1 1
1;
#X obj 125 201 metro 1000;
#X obj 107 70 receive metro-trigger;
#X obj 111 126 +;
#X floatatom 111 150 5 0 0 0 - - -;
#X obj 107 99 random;
#X obj 586 47 bng 15 250 50 0 empty empty empty 17 7 0 10 -262144 -1
-1;
#X obj 558 47 bng 15 250 50 0 empty empty empty 17 7 0 10 -262144 -1
-1;
#X obj 11 19 receive pitch;
#X obj 11 128 t b f;
#X obj 11 170 /;
#X obj 508 18 r initbang;
#X text 263 166 the array graphical array stored inside the object
(open);
#X text 298 102 write on the array when bang;
#X text 402 325 resize the array (with the sample rate \, here);
#X text 261 422 read from the array;
#X text 302 19 analog to digital converter (in);
#X obj 586 18 receive trigger-global;
#X obj 114 422 tabread4~ \$0-sampling-8;
#X obj 301 335 s \$0-sampling-8;
#X obj 265 147 table \$0-sampling-8;
#X obj 265 122 tabwrite~ \$0-sampling-8;
#X obj 730 18 r trig-local-8;
#X obj 202 612 outlet~;
#X obj 153 612 outlet~;
#X text 252 611 (out);
#X connect 0 0 6 0;
#X connect 0 1 8 0;
#X connect 1 0 3 1;
#X connect 2 0 1 0;
#X connect 3 0 65 0;
#X connect 4 0 64 0;
#X connect 6 0 62 0;
#X connect 8 0 62 0;
#X connect 9 0 60 0;
#X connect 10 0 11 0;
#X connect 11 0 9 0;
#X connect 11 0 38 0;
#X connect 17 0 23 1;
#X connect 18 0 19 0;
#X connect 19 0 17 0;
#X connect 23 0 3 0;
#X connect 23 0 4 0;
#X connect 24 0 18 0;
#X connect 24 0 39 0;
#X connect 25 0 26 0;
#X connect 26 0 24 0;
#X connect 27 0 25 0;
#X connect 28 0 2 0;
#X connect 28 1 29 0;
#X connect 29 0 30 0;
#X connect 30 0 4 1;
#X connect 30 0 1 1;
#X connect 31 0 32 0;
#X connect 31 0 35 0;
#X connect 32 0 51 0;
#X connect 33 0 25 2;
#X connect 33 0 44 1;
#X connect 34 0 25 1;
#X connect 35 0 38 1;
#X connect 36 0 39 1;
#X connect 37 0 27 0;
#X connect 37 1 34 0;
#X connect 37 2 38 0;
#X connect 38 0 36 0;
#X connect 39 0 59 0;
#X connect 40 0 41 0;
#X connect 40 0 10 0;
#X connect 41 0 42 0;
#X connect 42 0 28 0;
#X connect 42 0 37 0;
#X connect 42 0 46 0;
#X connect 43 0 46 1;
#X connect 44 0 45 0;
#X connect 45 0 42 1;
#X connect 46 0 44 0;
#X connect 47 0 62 0;
#X connect 48 0 62 0;
#X connect 49 0 50 0;
#X connect 50 0 51 0;
#X connect 50 1 51 1;
#X connect 51 0 33 0;
#X connect 52 0 48 0;
#X connect 58 0 47 0;
#X connect 59 0 23 0;
#X connect 63 0 47 0;
#X restore 118 434 pd grainline-8;
#X obj 394 369 s trig-local-5;
#X obj 410 394 s trig-local-6;
#X obj 426 419 s trig-local-7;
#X obj 442 446 s trig-local-8;
#X obj 287 112 * 7;
#X obj 201 271 * 1000;
#X obj 254 340 select 0 1 2 3 4 5 6 7 8;
#X obj 286 295 mod 8;
#X text 732 337 This granular algorithm have 8 indipendent tapes. 1
second that you can record per tape. For each tape you can read a section
that goes from 1 millisecond to the full recording of 1 second;
#X text 884 317 8-TAPES;
#X msg 151 52 1000;
#X obj 168 191 / 4095;
#X obj 175 246 -;
#X obj 173 217 t b f;
#X msg 128 193 1;
#X text 670 442 digital to analog converter (out);
#X floatatom 594 320 5 0 0 0 - - -;
#X obj 594 366 line~;
#X msg 594 343 \$1 20;
#X obj 615 414 *~;
#X obj 642 414 *~;
#X obj 636 442 dac~;
#X floatatom 564 117 5 0 0 0 - - -;
#X obj 657 140 / 4095;
#X obj 567 91 hsl 128 15 0 1 0 0 empty empty empty -2 -8 0 10 -262144
-1 -1 0 1;
#X obj 545 414 *~;
#X obj 572 414 *~;
#X obj 566 442 dac~;
#X obj 551 367 adc~;
#X text 284 203 voice trigger selection;
#X obj 46 489 +~;
#X obj 146 488 +~;
#X text 592 71 amplitude grains;
#X obj 564 139 send amp-g;
#X floatatom 426 117 5 0 0 0 - - -;
#X obj 519 140 / 4095;
#X obj 429 91 hsl 128 15 0 1 0 0 empty empty empty -2 -8 0 10 -262144
-1 -1 12700 1;
#X msg 426 54 1;
#X obj 519 114 r adc3;
#X obj 426 139 send amp-d;
#X text 454 71 amplitude direct;
#X msg 564 54 0;
#X obj 594 300 receive amp-g;
#X text 593 279 amplitude grains;
#X floatatom 506 320 5 0 0 0 - - -;
#X obj 506 366 line~;
#X msg 506 343 \$1 20;
#X text 489 278 amplitude direct;
#X obj 657 114 r adc4;
#X obj 506 300 receive amp-d;
#X obj 616 -24 tedium_input 24;
#X obj 616 2 send trigger-local-metro;
#X obj 449 247 bng 15 250 50 0 empty empty empty 17 7 0 10 -262144
-1 -1;
#X obj 449 224 receive trigger-local-metro;
#X obj 397 290 metro 1000;
#X obj 449 265 tgl 15 0 empty empty empty 17 7 0 10 -262144 -1 -1 0
1;
#X obj 705 91 hsl 128 15 1000 0 0 0 empty empty empty -2 -8 0 10 -262144
-1 -1 0 1;
#X floatatom 702 112 5 0 0 0 - - -;
#X obj 753 271 * 1000;
#X msg 703 52 1000;
#X obj 720 191 / 4095;
#X obj 727 246 -;
#X obj 725 217 t b f;
#X msg 680 193 1;
#X text 736 70 metro trigger-autoarrays;
#X obj 702 138 send metro-autorec;
#X obj 485 245 receive metro-autorec;
#X obj 720 168 r adc5;
#X connect 1 0 2 0;
#X connect 2 0 0 0;
#X connect 3 0 4 0;
#X connect 4 0 45 0;
#X connect 8 0 52 0;
#X connect 9 0 12 0;
#X connect 12 0 53 0;
#X connect 12 0 91 0;
#X connect 12 0 50 0;
#X connect 12 0 44 0;
#X connect 12 0 10 0;
#X connect 12 0 122 0;
#X connect 12 0 118 0;
#X connect 12 0 140 0;
#X connect 21 0 25 0;
#X connect 22 0 21 0;
#X connect 22 0 23 0;
#X connect 22 0 24 0;
#X connect 22 0 37 0;
#X connect 22 0 36 0;
#X connect 24 0 25 0;
#X connect 25 0 13 0;
#X connect 25 1 14 0;
#X connect 25 2 15 0;
#X connect 25 3 16 0;
#X connect 25 4 17 0;
#X connect 25 5 18 0;
#X connect 25 6 19 0;
#X connect 25 7 20 0;
#X connect 26 0 32 0;
#X connect 27 0 32 1;
#X connect 28 0 32 2;
#X connect 29 0 32 3;
#X connect 30 0 32 4;
#X connect 31 0 32 5;
#X connect 32 0 33 0;
#X connect 34 0 32 6;
#X connect 35 0 32 7;
#X connect 36 0 25 0;
#X connect 37 0 25 0;
#X connect 39 0 40 0;
#X connect 40 0 55 0;
#X connect 41 0 92 0;
#X connect 42 0 49 0;
#X connect 43 0 42 0;
#X connect 49 0 85 0;
#X connect 50 0 49 0;
#X connect 51 0 8 0;
#X connect 53 0 1 0;
#X connect 54 0 1 0;
#X connect 55 0 56 0;
#X connect 55 1 54 1;
#X connect 56 0 54 0;
#X connect 57 0 111 0;
#X connect 57 1 112 0;
#X connect 59 0 62 0;
#X connect 63 0 70 1;
#X connect 64 0 87 0;
#X connect 65 0 70 0;
#X connect 70 0 63 0;
#X connect 70 0 88 0;
#X connect 71 0 111 0;
#X connect 71 1 112 0;
#X connect 72 0 111 0;
#X connect 72 1 112 0;
#X connect 73 0 111 0;
#X connect 73 1 112 0;
#X connect 74 0 75 0;
#X connect 76 0 65 0;
#X connect 77 0 111 1;
#X connect 77 1 112 1;
#X connect 78 0 111 1;
#X connect 78 1 112 1;
#X connect 79 0 111 1;
#X connect 79 1 112 1;
#X connect 80 0 111 1;
#X connect 80 1 112 1;
#X connect 85 0 51 0;
#X connect 86 0 3 0;
#X connect 87 0 66 0;
#X connect 87 1 67 0;
#X connect 87 2 68 0;
#X connect 87 3 69 0;
#X connect 87 4 81 0;
#X connect 87 5 82 0;
#X connect 87 6 83 0;
#X connect 87 7 84 0;
#X connect 88 0 64 0;
#X connect 91 0 3 0;
#X connect 92 0 94 0;
#X connect 93 0 86 0;
#X connect 94 0 95 0;
#X connect 94 1 93 1;
#X connect 95 0 93 0;
#X connect 97 0 99 0;
#X connect 98 0 100 1;
#X connect 98 0 101 1;
#X connect 99 0 98 0;
#X connect 100 0 102 0;
#X connect 101 0 102 1;
#X connect 103 0 114 0;
#X connect 104 0 105 0;
#X connect 105 0 103 0;
#X connect 106 0 108 0;
#X connect 107 0 108 1;
#X connect 109 0 106 0;
#X connect 109 1 107 0;
#X connect 111 0 100 0;
#X connect 112 0 101 0;
#X connect 115 0 120 0;
#X connect 116 0 117 0;
#X connect 117 0 115 0;
#X connect 118 0 117 0;
#X connect 119 0 116 0;
#X connect 122 0 105 0;
#X connect 123 0 97 0;
#X connect 125 0 127 0;
#X connect 126 0 106 1;
#X connect 126 0 107 1;
#X connect 127 0 126 0;
#X connect 129 0 104 0;
#X connect 130 0 125 0;
#X connect 131 0 132 0;
#X connect 133 0 136 0;
#X connect 134 0 133 0;
#X connect 135 0 65 0;
#X connect 136 0 135 0;
#X connect 137 0 138 0;
#X connect 138 0 146 0;
#X connect 139 0 137 0;
#X connect 140 0 137 0;
#X connect 141 0 143 0;
#X connect 142 0 139 0;
#X connect 143 0 144 0;
#X connect 143 1 142 1;
#X connect 144 0 142 0;
#X connect 147 0 135 1;
#X connect 148 0 141 0;
