#N canvas 322 159 967 605 10;
#X obj 248 6 adc~;
#X obj 149 514 -;
#X msg 149 487 1;
#X obj 134 541 *~;
#X obj 181 541 *~;
#X text 279 510 spread grain in the stereophonic space;
#X obj 247 55 hip~ 5;
#X text 353 56 highpass filter;
#X obj 302 55 hip~ 5;
#X msg 315 298 resize \$1;
#X obj 275 198 samplerate~;
#X floatatom 277 222 5 0 0 0 - - -;
#X text 352 195 report current sample rate of the patch;
#X text 318 242 = 1 second of table size;
#X text 256 270 * 1 \, 2 \, 3 \, ecc. = table size 1 \, 2... seconds
;
#X text 317 227 samples here;
#X text 132 382 read from 0 to 1 @ 0 to the sample dimension of the
table;
#X obj 512 423 cos~;
#X obj 512 377 *~ 0.5;
#X obj 511 400 -~ 0.25;
#X text 564 374 cos~ is a sinewave table \; who start from 1 \, at
the mid of the table is -1 \, and in the end again 1;
#X text 549 423 this is why a phasor*0.5 read mid of the table \; and
-0.25 start read from 0 instead of 1;
#X text 511 351 envelope;
#X obj 94 456 *~;
#X obj 95 342 line~;
#X obj 96 292 pack f f f;
#X msg 95 316 \$1 \, \$2 \$3;
#X msg 83 246 0;
#X obj 191 458 t b b;
#X obj 218 486 random 1000;
#X obj 218 514 / 1000;
#X obj 50 30 receive grain-lenght;
#X obj 38 112 * 1000;
#X floatatom 10 170 5 0 0 0 - - -;
#X msg 120 247 1;
#X floatatom 181 186 5 0 0 0 - - -;
#X floatatom 224 298 5 0 0 0 - - -;
#X obj 62 217 t b b b;
#X obj 224 271 *;
#X obj 95 381 *~;
#X obj 178 6 r initbang;
#X obj 178 30 tgl 15 0 empty empty empty 17 7 0 10 -262144 -1 -1 1
1;
#X obj 106 186 metro 1000;
#X obj 88 55 receive metro-trigger;
#X obj 92 111 +;
#X floatatom 92 135 5 0 0 0 - - -;
#X obj 88 84 random;
#X obj 706 72 bng 15 250 50 0 empty empty empty 17 7 0 10 -262144 -1
-1;
#X obj 539 32 bng 15 250 50 0 empty empty empty 17 7 0 10 -262144 -1
-1;
#X obj 489 3 r initbang;
#X obj 282 320 s \$0-sampling-1;
#X text 244 151 the array graphical array stored inside the object
(open);
#X text 394 111 write on the array when bang;
#X text 383 310 resize the array (with the sample rate \, here);
#X obj 246 132 table \$0-sampling-1;
#X obj 246 110 tabwrite~ \$0-sampling-1;
#X obj 95 407 tabread4~ \$0-sampling-1;
#X text 242 407 read from the array;
#X text 283 4 analog to digital converter (in);
#X obj 567 3 receive trigger-global;
#X obj 85 566 throw~ out1;
#X obj 182 565 throw~ out2;
#X text 262 565 (outs);
#X obj 706 47 select 1;
#X obj 706 3 receive counter;
#X obj 808 27 \$0;
#X obj 807 3 loadbang;
#X obj 808 53 - 1003;
#X obj 706 25 ==;
#X obj 755 79 print;
#X obj 10 142 / 1;
#X connect 0 0 6 0;
#X connect 0 1 8 0;
#X connect 1 0 3 1;
#X connect 2 0 1 0;
#X connect 3 0 60 0;
#X connect 4 0 61 0;
#X connect 6 0 55 0;
#X connect 8 0 55 0;
#X connect 9 0 50 0;
#X connect 10 0 11 0;
#X connect 11 0 9 0;
#X connect 11 0 38 0;
#X connect 17 0 23 1;
#X connect 18 0 19 0;
#X connect 19 0 17 0;
#X connect 23 0 3 0;
#X connect 23 0 4 0;
#X connect 24 0 18 0;
#X connect 24 0 39 0;
#X connect 25 0 26 0;
#X connect 26 0 24 0;
#X connect 27 0 25 0;
#X connect 28 0 2 0;
#X connect 28 1 29 0;
#X connect 29 0 30 0;
#X connect 30 0 4 1;
#X connect 30 0 1 1;
#X connect 31 0 32 0;
#X connect 31 0 35 0;
#X connect 32 0 70 0;
#X connect 33 0 25 2;
#X connect 33 0 44 1;
#X connect 34 0 25 1;
#X connect 35 0 38 1;
#X connect 36 0 39 1;
#X connect 37 0 27 0;
#X connect 37 1 34 0;
#X connect 37 2 38 0;
#X connect 38 0 36 0;
#X connect 39 0 56 0;
#X connect 40 0 41 0;
#X connect 40 0 10 0;
#X connect 41 0 42 0;
#X connect 42 0 28 0;
#X connect 42 0 37 0;
#X connect 42 0 46 0;
#X connect 43 0 46 1;
#X connect 44 0 45 0;
#X connect 45 0 42 1;
#X connect 46 0 44 0;
#X connect 47 0 55 0;
#X connect 48 0 55 0;
#X connect 49 0 48 0;
#X connect 56 0 23 0;
#X connect 59 0 47 0;
#X connect 63 0 47 0;
#X connect 64 0 68 0;
#X connect 65 0 67 0;
#X connect 65 0 69 0;
#X connect 66 0 65 0;
#X connect 67 0 68 1;
#X connect 68 0 63 0;
#X connect 70 0 33 0;
