#N canvas 257 163 1559 800 10;
#X obj 109 321 + 1;
#X obj 157 298 + 1;
#X obj 125 361 nbx 5 14 -1e+37 1e+37 0 0 empty empty current_count
0 -8 0 10 -262144 -1 -1 0 256;
#X obj 112 296 f;
#X obj 137 253 t b;
#X msg 277 410 stop;
#X symbolatom 107 149 0 0 0 0 - - -;
#X msg 126 410 open \$1 \, start;
#X obj 107 124 tgl 15 0 empty empty rec_on/off 17 7 0 10 -262144 -1
-1 0 1;
#X obj 124 224 bng 12 250 50 0 empty empty rec 17 7 0 10 -262144 -1
-1;
#X obj 167 224 bng 12 250 50 0 empty empty stop 17 7 0 10 -262144 -1
-1;
#X obj 167 184 sel 0;
#X obj 214 184 sel 1;
#X obj 277 434 t b;
#X obj 10 465 writesf~ 1;
#X obj 379 499 nbx 5 14 -1e+37 1e+37 0 0 empty empty empty 0 -8 0 10
-262144 -1 -1 0 256;
#X obj 454 413 soundfiler;
#X obj 269 492 pack f f;
#X obj 269 514 unpack f f;
#X obj 592 408 print;
#X obj 326 337 nbx 5 14 -1e+37 1e+37 0 0 empty empty current_count
0 -8 0 10 -262144 -1 -1 0 256;
#X obj 269 460 del 100;
#X obj 136 382 makefilename record-%d.wav;
#X msg 418 380 read -resize record-\$1.wav record1;
#X obj 376 413 samplerate~;
#X obj 379 441 nbx 5 14 -1e+37 1e+37 0 0 empty empty empty 0 -8 0 10
-262144 -1 -1 44100 256;
#X obj 358 380 loadbang;
#X obj 379 473 /;
#X obj 340 381 bng 15 250 50 0 empty empty empty 17 7 0 10 -262144
-1 -1;
#X obj 379 520 phasor~;
#X obj 425 645 tabread4~ record1;
#X obj 424 619 *~;
#N canvas 0 0 450 300 (subpatch) 0;
#X array record1 512 float 2;
#X coords 0 1 512 -1 200 140 1 0 0;
#X restore 287 181 graph;
#X obj 422 565 +~;
#X obj 394 590 wrap~;
#X obj 1025 217 nbx 5 14 -1e+37 1e+37 0 0 empty empty splice_Hz 0 -8
0 10 -262144 -1 -1 4 256;
#X obj 587 645 tabread4~ record1;
#X obj 586 619 *~;
#X obj 584 565 +~;
#X obj 556 590 wrap~;
#X obj 984 335 abs~;
#X obj 1018 268 noise~;
#X obj 973 307 samphold~;
#X obj 1075 240 phasor~;
#X obj 440 438 t b f f f;
#X obj 608 216 bng 15 250 50 0 empty empty change_file 17 7 0 10 -262144
-1 -1;
#X obj 608 254 f;
#X obj 642 253 + 1;
#X obj 627 338 nbx 5 14 -1e+37 1e+37 0 0 empty empty current_count
0 -8 0 10 -262144 -1 -1 0 256;
#X obj 1026 372 samphold~;
#X obj 195 124 tgl 15 0 empty empty sync-async 17 7 0 10 -262144 -1
-1 0 1;
#X obj 1098 302 loadbang;
#X msg 1098 323 1;
#X obj 1098 367 -;
#X obj 1133 340 t b f;
#X obj 954 403 nbx 5 14 -1e+37 1e+37 0 0 empty empty empty 0 -8 0 10
-262144 -1 -1 1 256;
#X obj 1022 437 *~;
#X obj 1013 404 nbx 5 14 -1e+37 1e+37 0 0 empty empty empty 0 -8 0
10 -262144 -1 -1 0 256;
#X obj 1077 439 *~;
#X text 853 241 Splice synchronous - asynchronous;
#X obj 1065 464 abs~;
#X obj 1022 489 +~;
#X obj 746 337 abs~;
#X obj 780 270 noise~;
#X obj 735 309 samphold~;
#X obj 788 374 samphold~;
#X obj 784 439 *~;
#X obj 839 441 *~;
#X obj 827 466 abs~;
#X obj 784 491 +~;
#X obj 617 758 dac~;
#X obj 6 91 adc~;
#X text 189 61 TTimeshuffler : Data Storage Splicing;
#X obj 464 42 tedium_input 23;
#X text 462 19 tact switches #0-2:;
#X text 592 18 (panel switches);
#X obj 594 42 tedium_input 25;
#X obj 438 42 bng 15 250 50 0 empty empty empty 17 7 0 10 -262144 -1
-1;
#X obj 697 42 bng 15 250 50 0 empty empty empty 17 7 0 10 -262144 -1
-1;
#X obj 464 68 send trigger-rec;
#X obj 99 92 receive trigger-rec;
#X obj 594 68 send trigger-sync;
#X obj 231 92 receive trigger-sync;
#X obj 838 45 bng 15 250 50 0 empty empty empty 17 7 0 10 -262144 -1
-1;
#X obj 734 45 tedium_input 24;
#X obj 735 71 send trigger-changefile;
#X obj 583 158 receive trigger-changefile;
#X obj 908 70 loadbang;
#X msg 970 185 4;
#X obj 908 118 delay 300;
#X obj 1295 577 s adc0;
#X obj 1339 576 s adc1;
#X obj 1383 576 s adc2;
#X obj 1426 576 s adc3;
#X obj 1296 624 s adc4;
#X obj 1340 623 s adc5;
#X obj 1384 623 s adc6;
#X obj 1428 623 s adc7;
#X msg 1162 473 open;
#X obj 1162 445 r initbang;
#X msg 1351 474 open adc;
#X obj 1294 523 metro 10;
#X obj 1294 548 terminal_tedium_adc;
#X obj 1296 598 r adc0;
#X obj 1339 598 r adc1;
#X obj 1383 598 r adc2;
#X obj 1426 598 r adc3;
#X obj 1295 647 r adc4;
#X obj 1340 647 r adc5;
#X obj 1293 676 pack f f f f f f f f;
#X obj 1354 704 print adc:;
#X obj 1384 647 r adc6;
#X obj 1430 646 r adc7;
#X msg 1278 474 smooth 16;
#X msg 1204 474 deadband 5;
#X text 1163 426 TT Knobs;
#X obj 28 219 hip~ 5;
#X obj 72 218 hip~ 5;
#X obj 610 281 mod;
#X obj 610 304 + 1;
#X obj 889 573 bng 15 250 50 0 empty empty off-test 17 7 0 10 -262144
-1 -1;
#X obj 931 601 + 1;
#X obj 897 627 + 1;
#X obj 896 672 bng 15 250 50 0 empty empty empty 17 7 0 10 -262144
-1 -1;
#X obj 897 602 f;
#X msg 898 692 0;
#X obj 877 717 *~ 1;
#X obj 847 604 noise~;
#X obj 897 650 sel 1;
#X msg 1148 509 \; pd dsp 1 \;;
#X obj 889 545 receive trigger-changefile;
#X obj 997 118 / 4095;
#X floatatom 1003 165 5 0 0 0 - - -;
#X obj 998 145 hsl 128 15 0 1 0 0 empty empty empty -2 -8 0 10 -262144
-1 -1 0 1;
#X obj 997 92 r adc0;
#X obj 857 157 s initbang;
#X floatatom 672 488 5 0 0 0 - - -;
#X obj 672 534 line~;
#X msg 672 511 \$1 20;
#X obj 658 457 / 4095;
#X obj 658 431 r adc1;
#X obj 459 694 *~;
#X obj 487 695 *~;
#X obj 614 694 *~;
#X obj 641 694 *~;
#X obj 731 644 -~;
#X obj 730 569 sig~ 1;
#X obj 1003 185 * 40;
#X connect 0 0 2 0;
#X connect 1 0 3 1;
#X connect 2 0 17 1;
#X connect 2 0 22 0;
#X connect 3 0 1 0;
#X connect 3 0 0 0;
#X connect 4 0 3 0;
#X connect 5 0 13 0;
#X connect 5 0 14 0;
#X connect 7 0 14 0;
#X connect 8 0 11 0;
#X connect 8 0 12 0;
#X connect 9 0 4 0;
#X connect 10 0 5 0;
#X connect 11 0 10 0;
#X connect 12 0 9 0;
#X connect 13 0 21 0;
#X connect 15 0 29 0;
#X connect 16 0 44 0;
#X connect 17 0 18 0;
#X connect 18 1 20 0;
#X connect 20 0 23 0;
#X connect 20 0 118 1;
#X connect 21 0 17 0;
#X connect 22 0 7 0;
#X connect 22 0 6 0;
#X connect 23 0 19 0;
#X connect 23 0 16 0;
#X connect 24 0 25 0;
#X connect 25 0 27 0;
#X connect 26 0 24 0;
#X connect 27 0 15 0;
#X connect 28 0 24 0;
#X connect 28 0 16 0;
#X connect 29 0 33 0;
#X connect 29 0 38 0;
#X connect 30 0 141 0;
#X connect 31 0 30 0;
#X connect 33 0 34 0;
#X connect 34 0 31 0;
#X connect 35 0 43 0;
#X connect 36 0 142 0;
#X connect 37 0 36 0;
#X connect 38 0 39 0;
#X connect 39 0 37 0;
#X connect 40 0 49 1;
#X connect 40 0 56 0;
#X connect 41 0 42 0;
#X connect 41 0 49 0;
#X connect 42 0 40 0;
#X connect 43 0 42 1;
#X connect 43 0 64 1;
#X connect 44 0 27 0;
#X connect 44 1 27 1;
#X connect 44 2 31 1;
#X connect 44 3 37 1;
#X connect 45 0 46 0;
#X connect 46 0 47 0;
#X connect 46 0 118 0;
#X connect 47 0 46 1;
#X connect 48 0 23 0;
#X connect 49 0 58 0;
#X connect 50 0 54 0;
#X connect 50 0 57 0;
#X connect 51 0 52 0;
#X connect 52 0 53 0;
#X connect 53 0 55 0;
#X connect 54 0 53 0;
#X connect 54 1 53 1;
#X connect 55 0 56 1;
#X connect 55 0 66 1;
#X connect 56 0 61 0;
#X connect 57 0 58 1;
#X connect 57 0 67 1;
#X connect 58 0 60 0;
#X connect 60 0 61 1;
#X connect 61 0 38 1;
#X connect 62 0 65 1;
#X connect 62 0 66 0;
#X connect 63 0 64 0;
#X connect 63 0 65 0;
#X connect 64 0 62 0;
#X connect 65 0 67 0;
#X connect 66 0 69 0;
#X connect 67 0 68 0;
#X connect 68 0 69 1;
#X connect 69 0 33 1;
#X connect 71 0 116 0;
#X connect 71 0 143 0;
#X connect 71 1 117 0;
#X connect 71 1 144 0;
#X connect 73 0 79 0;
#X connect 76 0 81 0;
#X connect 77 0 79 0;
#X connect 78 0 81 0;
#X connect 80 0 8 0;
#X connect 82 0 50 0;
#X connect 83 0 85 0;
#X connect 84 0 85 0;
#X connect 86 0 45 0;
#X connect 87 0 89 0;
#X connect 88 0 35 0;
#X connect 89 0 88 0;
#X connect 89 0 135 0;
#X connect 98 0 102 0;
#X connect 99 0 98 0;
#X connect 99 0 100 0;
#X connect 99 0 101 0;
#X connect 99 0 114 0;
#X connect 99 0 113 0;
#X connect 99 0 129 0;
#X connect 101 0 102 0;
#X connect 102 0 90 0;
#X connect 102 1 91 0;
#X connect 102 2 92 0;
#X connect 102 3 93 0;
#X connect 102 4 94 0;
#X connect 102 5 95 0;
#X connect 102 6 96 0;
#X connect 102 7 97 0;
#X connect 103 0 109 0;
#X connect 104 0 109 1;
#X connect 105 0 109 2;
#X connect 106 0 109 3;
#X connect 107 0 109 4;
#X connect 108 0 109 5;
#X connect 109 0 110 0;
#X connect 111 0 109 6;
#X connect 112 0 109 7;
#X connect 113 0 102 0;
#X connect 114 0 102 0;
#X connect 116 0 14 0;
#X connect 117 0 14 0;
#X connect 118 0 119 0;
#X connect 119 0 48 0;
#X connect 120 0 124 0;
#X connect 121 0 124 1;
#X connect 122 0 128 0;
#X connect 123 0 125 0;
#X connect 124 0 121 0;
#X connect 124 0 122 0;
#X connect 125 0 126 1;
#X connect 126 0 70 0;
#X connect 126 0 70 1;
#X connect 127 0 126 0;
#X connect 128 0 123 0;
#X connect 130 0 120 0;
#X connect 131 0 133 0;
#X connect 132 0 147 0;
#X connect 133 0 132 0;
#X connect 134 0 131 0;
#X connect 136 0 138 0;
#X connect 137 0 141 1;
#X connect 137 0 142 1;
#X connect 137 0 145 1;
#X connect 138 0 137 0;
#X connect 139 0 136 0;
#X connect 140 0 139 0;
#X connect 141 0 70 0;
#X connect 142 0 70 1;
#X connect 143 0 70 0;
#X connect 144 0 70 1;
#X connect 145 0 143 1;
#X connect 145 0 144 1;
#X connect 146 0 145 0;
#X connect 147 0 35 0;
#X coords 0 800 1 799 180 80 0;
