#N canvas 72 163 1275 839 10;
#X obj 109 360 + 1;
#X obj 157 337 + 1;
#X obj 125 400 nbx 5 14 -1e+37 1e+37 0 0 empty empty current_count
0 -8 0 10 -262144 -1 -1 0 256;
#X obj 112 335 f;
#X obj 137 292 t b;
#X msg 277 449 stop;
#X symbolatom 107 188 0 0 0 0 - - -;
#X msg 126 449 open \$1 \, start;
#X obj 107 163 tgl 15 0 empty empty rec_on/off 17 7 0 10 -262144 -1
-1 0 1;
#X obj 124 263 bng 12 250 50 0 empty empty rec 17 7 0 10 -262144 -1
-1;
#X obj 167 263 bng 12 250 50 0 empty empty stop 17 7 0 10 -262144 -1
-1;
#X obj 167 223 sel 0;
#X obj 214 223 sel 1;
#X obj 277 473 t b;
#X obj 10 504 writesf~ 1;
#X obj 379 538 nbx 5 14 -1e+37 1e+37 0 0 empty empty empty 0 -8 0 10
-262144 -1 -1 0.172094 256;
#X obj 454 452 soundfiler;
#X obj 269 531 pack f f;
#X obj 269 553 unpack f f;
#X obj 592 447 print;
#X obj 326 376 nbx 5 14 -1e+37 1e+37 0 0 empty empty current_count
0 -8 0 10 -262144 -1 -1 0 256;
#X obj 269 499 del 100;
#X obj 136 421 makefilename record-%d.wav;
#X msg 418 419 read -resize record-\$1.wav record1;
#X obj 376 452 samplerate~;
#X obj 379 480 nbx 5 14 -1e+37 1e+37 0 0 empty empty empty 0 -8 0 10
-262144 -1 -1 44100 256;
#X obj 358 419 loadbang;
#X obj 379 512 /;
#X obj 340 420 bng 15 250 50 0 empty empty empty 17 7 0 10 -262144
-1 -1;
#X obj 379 559 phasor~;
#X obj 425 684 tabread4~ record1;
#X obj 424 658 *~;
#N canvas 0 0 450 300 (subpatch) 0;
#X array record1 256256 float 2;
#X coords 0 1 256256 -1 200 140 1 0 0;
#X restore 287 220 graph;
#X obj 422 604 +~;
#X obj 394 629 wrap~;
#X obj 1025 256 nbx 5 14 -1e+37 1e+37 0 0 empty empty splice_Hz 0 -8
0 10 -262144 -1 -1 4 256;
#X obj 587 684 tabread4~ record1;
#X obj 586 658 *~;
#X obj 584 604 +~;
#X obj 556 629 wrap~;
#X obj 984 374 abs~;
#X obj 1018 307 noise~;
#X obj 973 346 samphold~;
#X obj 1075 279 phasor~;
#X obj 440 477 t b f f f;
#X obj 319 161 bng 15 250 50 0 empty empty change_file 17 7 0 10 -262144
-1 -1;
#X obj 608 293 f;
#X obj 642 292 + 1;
#X obj 627 377 nbx 5 14 -1e+37 1e+37 0 0 empty empty current_count
0 -8 0 10 -262144 -1 -1 1 256;
#X obj 1026 411 samphold~;
#X obj 195 163 tgl 15 0 empty empty sync-async 17 7 0 10 -262144 -1
-1 0 1;
#X obj 1098 341 loadbang;
#X msg 1098 362 1;
#X obj 1098 406 -;
#X obj 1133 379 t b f;
#X obj 954 442 nbx 5 14 -1e+37 1e+37 0 0 empty empty empty 0 -8 0 10
-262144 -1 -1 1 256;
#X obj 1022 476 *~;
#X obj 1013 443 nbx 5 14 -1e+37 1e+37 0 0 empty empty empty 0 -8 0
10 -262144 -1 -1 0 256;
#X obj 1077 478 *~;
#X text 853 280 Splice synchronous - asynchronous;
#X obj 1065 503 abs~;
#X obj 1022 528 +~;
#X obj 746 376 abs~;
#X obj 780 309 noise~;
#X obj 735 348 samphold~;
#X obj 788 413 samphold~;
#X obj 784 478 *~;
#X obj 839 480 *~;
#X obj 827 505 abs~;
#X obj 784 530 +~;
#X obj 617 797 dac~;
#X obj 6 130 adc~;
#X text 100 95 TTimeshuffler : Data Storage Splicing;
#X obj 970 171 loadbang;
#X msg 970 224 4;
#X obj 28 258 hip~ 5;
#X obj 72 257 hip~ 5;
#X obj 610 320 mod;
#X obj 610 343 + 1;
#X obj 438 105 / 4095;
#X floatatom 1003 204 5 0 0 0 - - -;
#X obj 439 132 hsl 128 15 0 1 0 0 empty empty empty -2 -8 0 10 -262144
-1 -1 0 1;
#X obj 438 79 r adc0;
#X floatatom 672 527 5 0 0 0 - - -;
#X obj 672 573 line~;
#X msg 672 550 \$1 20;
#X obj 658 496 / 4095;
#X obj 658 470 r adc1;
#X obj 459 733 *~;
#X obj 539 731 *~;
#X obj 614 733 *~;
#X obj 698 730 *~;
#X obj 717 641 -~;
#X obj 730 608 sig~ 1;
#X obj 1003 224 * 40;
#X obj 99 131 receive button-1;
#X obj 208 131 receive button-2;
#X obj 319 131 receive button-3;
#X msg 646 343 1;
#X connect 0 0 2 0;
#X connect 1 0 3 1;
#X connect 2 0 17 1;
#X connect 2 0 22 0;
#X connect 3 0 1 0;
#X connect 3 0 0 0;
#X connect 4 0 3 0;
#X connect 5 0 13 0;
#X connect 5 0 14 0;
#X connect 7 0 14 0;
#X connect 8 0 11 0;
#X connect 8 0 12 0;
#X connect 9 0 4 0;
#X connect 10 0 5 0;
#X connect 11 0 10 0;
#X connect 12 0 9 0;
#X connect 13 0 21 0;
#X connect 15 0 29 0;
#X connect 16 0 44 0;
#X connect 17 0 18 0;
#X connect 18 1 20 0;
#X connect 20 0 23 0;
#X connect 20 0 77 1;
#X connect 21 0 17 0;
#X connect 22 0 7 0;
#X connect 22 0 6 0;
#X connect 23 0 19 0;
#X connect 23 0 16 0;
#X connect 24 0 25 0;
#X connect 25 0 27 0;
#X connect 26 0 24 0;
#X connect 27 0 15 0;
#X connect 28 0 24 0;
#X connect 28 0 16 0;
#X connect 29 0 33 0;
#X connect 29 0 38 0;
#X connect 30 0 88 0;
#X connect 31 0 30 0;
#X connect 33 0 34 0;
#X connect 34 0 31 0;
#X connect 35 0 43 0;
#X connect 36 0 89 0;
#X connect 37 0 36 0;
#X connect 38 0 39 0;
#X connect 39 0 37 0;
#X connect 40 0 49 1;
#X connect 40 0 56 0;
#X connect 41 0 42 0;
#X connect 41 0 49 0;
#X connect 42 0 40 0;
#X connect 43 0 42 1;
#X connect 43 0 64 1;
#X connect 44 0 27 0;
#X connect 44 1 27 1;
#X connect 44 2 31 1;
#X connect 44 3 37 1;
#X connect 45 0 46 0;
#X connect 46 0 47 0;
#X connect 46 0 77 0;
#X connect 47 0 46 1;
#X connect 48 0 23 0;
#X connect 49 0 58 0;
#X connect 50 0 54 0;
#X connect 50 0 57 0;
#X connect 51 0 52 0;
#X connect 52 0 53 0;
#X connect 53 0 55 0;
#X connect 54 0 53 0;
#X connect 54 1 53 1;
#X connect 55 0 56 1;
#X connect 55 0 66 1;
#X connect 56 0 61 0;
#X connect 57 0 58 1;
#X connect 57 0 67 1;
#X connect 58 0 60 0;
#X connect 60 0 61 1;
#X connect 61 0 38 1;
#X connect 62 0 65 1;
#X connect 62 0 66 0;
#X connect 63 0 64 0;
#X connect 63 0 65 0;
#X connect 64 0 62 0;
#X connect 65 0 67 0;
#X connect 66 0 69 0;
#X connect 67 0 68 0;
#X connect 68 0 69 1;
#X connect 69 0 33 1;
#X connect 71 0 75 0;
#X connect 71 0 90 0;
#X connect 71 1 76 0;
#X connect 71 1 91 0;
#X connect 73 0 74 0;
#X connect 73 0 98 0;
#X connect 74 0 35 0;
#X connect 75 0 14 0;
#X connect 76 0 14 0;
#X connect 77 0 78 0;
#X connect 78 0 48 0;
#X connect 79 0 81 0;
#X connect 80 0 94 0;
#X connect 81 0 80 0;
#X connect 82 0 79 0;
#X connect 83 0 85 0;
#X connect 84 0 92 1;
#X connect 84 0 91 1;
#X connect 84 0 90 1;
#X connect 85 0 84 0;
#X connect 86 0 83 0;
#X connect 87 0 86 0;
#X connect 88 0 70 0;
#X connect 89 0 70 1;
#X connect 90 0 70 0;
#X connect 91 0 70 1;
#X connect 92 0 89 1;
#X connect 92 0 88 1;
#X connect 93 0 92 0;
#X connect 94 0 35 0;
#X connect 95 0 8 0;
#X connect 96 0 50 0;
#X connect 97 0 45 0;
#X connect 98 0 48 0;
#X coords 0 839 1 838 180 80 0;
