#N canvas 73 119 1041 528 10;
#X obj 18 189 send grain-lenght;
#X obj 21 143 hsl 128 15 1 0.001 0 0 empty empty empty -2 -8 0 10 -262144
-1 -1 0 1;
#X floatatom 18 167 5 0 0 0 - - -;
#X obj 184 143 hsl 128 15 1000 0 0 0 empty empty empty -2 -8 0 10 -262144
-1 -1 0 1;
#X floatatom 181 164 5 0 0 0 - - -;
#X text 40 121 grain dimension;
#X text 70 161 10 to 1000 ms;
#X text 116 319 start the dsp;
#X floatatom 331 208 5 0 0 0 - - -;
#X obj 132 28 loadbang;
#X obj 253 24 s initbang;
#X text 130 6 send the trigger;
#X obj 132 54 delay 300;
#X obj 535 145 s adc0;
#X obj 596 145 s adc1;
#X obj 658 145 s adc2;
#X obj 722 145 s adc3;
#X obj 782 145 s adc4;
#X obj 846 145 s adc5;
#X obj 911 145 s adc6;
#X obj 973 145 s adc7;
#X msg 328 52 open;
#X obj 328 24 r initbang;
#X msg 517 53 open adc;
#X obj 419 83 metro 10;
#X obj 419 108 terminal_tedium_adc;
#X obj 486 170 r adc0;
#X obj 542 170 r adc1;
#X obj 599 170 r adc2;
#X obj 657 170 r adc3;
#X obj 714 170 r adc4;
#X obj 771 170 r adc5;
#X obj 486 209 pack f f f f f f f f;
#X obj 483 235 print adc:;
#X obj 826 170 r adc6;
#X obj 878 169 r adc7;
#X msg 444 53 smooth 16;
#X msg 370 53 deadband 5;
#X text 128 337 sum and dac;
#X obj 77 220 r adc0;
#X obj 74 248 / 4095;
#X obj 218 253 / 4095;
#X obj 221 225 r adc1;
#X obj 417 190 / 4095;
#X obj 420 162 r adc2;
#X msg 204 318 \; pd dsp 1 \;;
#X obj 181 190 send metro-trigger;
#X text 215 122 metro trigger;
#X text 329 5 TT Knobs;
#X text 349 124 pitch;
#X obj 334 140 hsl 128 15 0 1 0 0 empty empty empty -2 -8 0 10 -262144
-1 -1 0 1;
#X msg 331 103 0;
#X obj 330 183 + 1;
#X obj 331 230 send pitch;
#X msg 19 102 1;
#X obj 81 303 -;
#X obj 79 274 t b f;
#X msg 34 250 1;
#X text 309 268 voices of the granulation algorithm:;
#X obj 597 27 tedium_input 23;
#X text 595 4 tact switches #0-2:;
#X text 725 3 (panel switches);
#X obj 597 53 send trigger-global;
#X obj 597 280 + 1;
#X obj 533 330 hradio 14 1 0 8 empty empty empty 0 -8 0 10 -262144
-1 -1 3;
#X obj 565 257 bng 15 250 50 0 empty empty empty 17 7 0 10 -262144
-1 -1;
#X obj 575 379 s trig-local-1;
#X obj 591 404 s trig-local-2;
#X obj 607 429 s trig-local-3;
#X obj 623 456 s trig-local-4;
#X obj 565 280 f;
#X obj 727 27 tedium_input 25;
#X obj 727 53 send trigger-local-main;
#X obj 565 234 receive trigger-local-main;
#X obj 673 379 s trig-local-5;
#X obj 689 404 s trig-local-6;
#X obj 705 429 s trig-local-7;
#X obj 721 456 s trig-local-8;
#X obj 330 161 * 7;
#X obj 218 279 * 1000;
#X obj 533 350 select 0 1 2 3 4 5 6 7 8;
#X obj 565 305 mod 8;
#X text 88 429 This granular algorithm have 8 indipendent tapes. 1
second that you can record per tape. For each tape you can read a section
that goes from 1 millisecond to the full recording of 1 second;
#X msg 182 104 1000;
#X text 227 407 GRAINS;
#N canvas 152 108 971 650 grainline 0;
#X obj 154 613 dac~;
#X obj 267 21 adc~;
#X obj 168 557 -;
#X msg 168 502 1;
#X obj 153 584 *~;
#X obj 200 584 *~;
#X text 298 525 spread grain in the stereophonic space;
#X obj 486 72 receive amp;
#X floatatom 486 92 5 0 0 0 - - -;
#X obj 486 138 line~;
#X msg 486 115 \$1 20;
#X obj 266 70 hip~ 5;
#X text 372 71 highpass filter;
#X obj 321 70 hip~ 5;
#X obj 266 189 samplerate~;
#X floatatom 266 234 5 0 0 0 - - -;
#X text 343 186 report current sample rate of the patch;
#X text 337 257 = 1 second of table size;
#X text 275 285 * 1 \, 2 \, 3 \, ecc. = table size 1 \, 2... seconds
;
#X text 336 242 samples here;
#X text 151 397 read from 0 to 1 @ 0 to the sample dimension of the
table;
#X obj 531 438 cos~;
#X obj 531 392 *~ 0.5;
#X obj 530 415 -~ 0.25;
#X text 583 389 cos~ is a sinewave table \; who start from 1 \, at
the mid of the table is -1 \, and in the end again 1;
#X text 568 438 this is why a phasor*0.5 read mid of the table \; and
-0.25 start read from 0 instead of 1;
#X text 530 366 envelope;
#X obj 113 471 *~;
#X obj 114 357 line~;
#X obj 115 307 pack f f f;
#X msg 114 331 \$1 \, \$2 \$3;
#X msg 102 261 0;
#X obj 210 473 t b b;
#X obj 237 501 random 1000;
#X obj 237 529 / 1000;
#X obj 57 43 receive grain-lenght;
#X floatatom 20 208 5 0 0 0 - - -;
#X msg 139 262 1;
#X floatatom 269 261 5 0 0 0 - - -;
#X floatatom 243 313 5 0 0 0 - - -;
#X obj 81 232 t b b b;
#X obj 243 286 *;
#X obj 114 396 *~;
#X obj 197 21 r initbang;
#X obj 197 45 tgl 15 0 empty empty empty 17 7 0 10 -262144 -1 -1 1
1;
#X obj 125 201 metro 1000;
#X obj 107 70 receive metro-trigger;
#X obj 111 126 +;
#X floatatom 111 150 5 0 0 0 - - -;
#X obj 107 99 random;
#X obj 586 52 bng 15 250 50 0 empty empty empty 17 7 0 10 -262144 -1
-1;
#X obj 558 52 bng 15 250 50 0 empty empty empty 17 7 0 10 -262144 -1
-1;
#X obj 11 19 receive pitch;
#X obj 11 128 t b f;
#X obj 11 170 /;
#X obj 508 18 r initbang;
#X text 263 166 the array graphical array stored inside the object
(open);
#X text 298 102 write on the array when bang;
#X text 402 325 resize the array (with the sample rate \, here);
#X text 261 422 read from the array;
#X text 189 613 digital to analog converter (out);
#X text 302 19 analog to digital converter (in);
#X obj 586 18 receive trigger-global;
#X obj 730 18 r trig-local-1;
#X obj 266 212 / 10;
#X obj 57 127 * 100;
#X obj 698 61 random 100000;
#X floatatom 698 82 5 0 0 0 - - -;
#X msg 606 105 set \$1-memory;
#X obj 114 422 tabread4~;
#X obj 670 129 t b;
#X obj 267 149 tabwrite~;
#X obj 715 143 s \$0-array;
#X msg 715 119 rename \$1-memory;
#X obj 703 285 pack f f;
#X obj 698 248 t b f;
#X msg 703 308 \; \$2-memory resize \$1;
#X obj 716 176 table \$0-array;
#X connect 1 0 11 0;
#X connect 1 1 13 0;
#X connect 2 0 4 1;
#X connect 3 0 2 0;
#X connect 4 0 0 0;
#X connect 5 0 0 1;
#X connect 7 0 8 0;
#X connect 8 0 10 0;
#X connect 10 0 9 0;
#X connect 11 0 71 0;
#X connect 13 0 71 0;
#X connect 14 0 64 0;
#X connect 15 0 41 0;
#X connect 15 0 74 0;
#X connect 21 0 27 1;
#X connect 22 0 23 0;
#X connect 23 0 21 0;
#X connect 27 0 4 0;
#X connect 27 0 5 0;
#X connect 28 0 22 0;
#X connect 28 0 42 0;
#X connect 29 0 30 0;
#X connect 30 0 28 0;
#X connect 31 0 29 0;
#X connect 32 0 3 0;
#X connect 32 1 33 0;
#X connect 33 0 34 0;
#X connect 34 0 5 1;
#X connect 34 0 2 1;
#X connect 35 0 38 0;
#X connect 35 0 65 0;
#X connect 36 0 29 2;
#X connect 36 0 47 1;
#X connect 37 0 29 1;
#X connect 38 0 41 1;
#X connect 39 0 42 1;
#X connect 40 0 31 0;
#X connect 40 1 37 0;
#X connect 40 2 41 0;
#X connect 41 0 39 0;
#X connect 42 0 69 0;
#X connect 43 0 44 0;
#X connect 44 0 45 0;
#X connect 45 0 32 0;
#X connect 45 0 40 0;
#X connect 45 0 49 0;
#X connect 46 0 49 1;
#X connect 47 0 48 0;
#X connect 48 0 45 1;
#X connect 49 0 47 0;
#X connect 50 0 71 0;
#X connect 51 0 71 0;
#X connect 52 0 53 0;
#X connect 53 0 54 0;
#X connect 53 1 54 1;
#X connect 54 0 36 0;
#X connect 55 0 51 0;
#X connect 55 0 66 0;
#X connect 62 0 50 0;
#X connect 63 0 50 0;
#X connect 64 0 15 0;
#X connect 65 0 54 0;
#X connect 66 0 67 0;
#X connect 67 0 73 0;
#X connect 67 0 68 0;
#X connect 67 0 75 0;
#X connect 68 0 69 0;
#X connect 68 0 70 0;
#X connect 68 0 71 0;
#X connect 69 0 27 0;
#X connect 70 0 14 0;
#X connect 73 0 72 0;
#X connect 74 0 76 0;
#X connect 75 0 74 0;
#X connect 75 1 74 1;
#X restore 311 290 pd grainline;
#N canvas 152 108 971 650 grainline 0;
#X obj 154 613 dac~;
#X obj 267 21 adc~;
#X obj 168 557 -;
#X msg 168 502 1;
#X obj 153 584 *~;
#X obj 200 584 *~;
#X text 298 525 spread grain in the stereophonic space;
#X obj 486 72 receive amp;
#X floatatom 486 92 5 0 0 0 - - -;
#X obj 486 138 line~;
#X msg 486 115 \$1 20;
#X obj 266 70 hip~ 5;
#X text 372 71 highpass filter;
#X obj 321 70 hip~ 5;
#X obj 266 189 samplerate~;
#X floatatom 266 234 5 0 0 0 - - -;
#X text 343 186 report current sample rate of the patch;
#X text 337 257 = 1 second of table size;
#X text 275 285 * 1 \, 2 \, 3 \, ecc. = table size 1 \, 2... seconds
;
#X text 336 242 samples here;
#X text 151 397 read from 0 to 1 @ 0 to the sample dimension of the
table;
#X obj 531 438 cos~;
#X obj 531 392 *~ 0.5;
#X obj 530 415 -~ 0.25;
#X text 583 389 cos~ is a sinewave table \; who start from 1 \, at
the mid of the table is -1 \, and in the end again 1;
#X text 568 438 this is why a phasor*0.5 read mid of the table \; and
-0.25 start read from 0 instead of 1;
#X text 530 366 envelope;
#X obj 113 471 *~;
#X obj 114 357 line~;
#X obj 115 307 pack f f f;
#X msg 114 331 \$1 \, \$2 \$3;
#X msg 102 261 0;
#X obj 210 473 t b b;
#X obj 237 501 random 1000;
#X obj 237 529 / 1000;
#X obj 57 43 receive grain-lenght;
#X floatatom 20 208 5 0 0 0 - - -;
#X msg 139 262 1;
#X floatatom 269 261 5 0 0 0 - - -;
#X floatatom 243 313 5 0 0 0 - - -;
#X obj 81 232 t b b b;
#X obj 243 286 *;
#X obj 114 396 *~;
#X obj 197 21 r initbang;
#X obj 197 45 tgl 15 0 empty empty empty 17 7 0 10 -262144 -1 -1 0
1;
#X obj 125 201 metro 1000;
#X obj 107 70 receive metro-trigger;
#X obj 111 126 +;
#X floatatom 111 150 5 0 0 0 - - -;
#X obj 107 99 random;
#X obj 586 52 bng 15 250 50 0 empty empty empty 17 7 0 10 -262144 -1
-1;
#X obj 558 52 bng 15 250 50 0 empty empty empty 17 7 0 10 -262144 -1
-1;
#X obj 11 19 receive pitch;
#X obj 11 128 t b f;
#X obj 11 170 /;
#X obj 508 18 r initbang;
#X text 263 166 the array graphical array stored inside the object
(open);
#X text 298 102 write on the array when bang;
#X text 402 325 resize the array (with the sample rate \, here);
#X text 261 422 read from the array;
#X text 189 613 digital to analog converter (out);
#X text 302 19 analog to digital converter (in);
#X obj 586 18 receive trigger-global;
#X obj 730 18 r trig-local-1;
#X obj 266 212 / 10;
#X obj 57 127 * 100;
#X obj 698 61 random 100000;
#X floatatom 698 82 5 0 0 0 - - -;
#X msg 606 105 set \$1-memory;
#X obj 114 422 tabread4~;
#X obj 670 129 t b;
#X obj 267 149 tabwrite~;
#X obj 715 143 s \$0-array;
#X msg 715 119 rename \$1-memory;
#X obj 703 285 pack f f;
#X obj 698 248 t b f;
#X msg 703 308 \; \$2-memory resize \$1;
#X obj 716 176 table \$0-array;
#X connect 1 0 11 0;
#X connect 1 1 13 0;
#X connect 2 0 4 1;
#X connect 3 0 2 0;
#X connect 4 0 0 0;
#X connect 5 0 0 1;
#X connect 7 0 8 0;
#X connect 8 0 10 0;
#X connect 10 0 9 0;
#X connect 11 0 71 0;
#X connect 13 0 71 0;
#X connect 14 0 64 0;
#X connect 15 0 41 0;
#X connect 15 0 74 0;
#X connect 21 0 27 1;
#X connect 22 0 23 0;
#X connect 23 0 21 0;
#X connect 27 0 4 0;
#X connect 27 0 5 0;
#X connect 28 0 22 0;
#X connect 28 0 42 0;
#X connect 29 0 30 0;
#X connect 30 0 28 0;
#X connect 31 0 29 0;
#X connect 32 0 3 0;
#X connect 32 1 33 0;
#X connect 33 0 34 0;
#X connect 34 0 5 1;
#X connect 34 0 2 1;
#X connect 35 0 38 0;
#X connect 35 0 65 0;
#X connect 36 0 29 2;
#X connect 36 0 47 1;
#X connect 37 0 29 1;
#X connect 38 0 41 1;
#X connect 39 0 42 1;
#X connect 40 0 31 0;
#X connect 40 1 37 0;
#X connect 40 2 41 0;
#X connect 41 0 39 0;
#X connect 42 0 69 0;
#X connect 43 0 44 0;
#X connect 44 0 45 0;
#X connect 45 0 32 0;
#X connect 45 0 40 0;
#X connect 45 0 49 0;
#X connect 46 0 49 1;
#X connect 47 0 48 0;
#X connect 48 0 45 1;
#X connect 49 0 47 0;
#X connect 50 0 71 0;
#X connect 51 0 71 0;
#X connect 52 0 53 0;
#X connect 53 0 54 0;
#X connect 53 1 54 1;
#X connect 54 0 36 0;
#X connect 55 0 51 0;
#X connect 55 0 66 0;
#X connect 62 0 50 0;
#X connect 63 0 50 0;
#X connect 64 0 15 0;
#X connect 65 0 54 0;
#X connect 66 0 67 0;
#X connect 67 0 73 0;
#X connect 67 0 68 0;
#X connect 67 0 75 0;
#X connect 68 0 69 0;
#X connect 68 0 70 0;
#X connect 68 0 71 0;
#X connect 69 0 27 0;
#X connect 70 0 14 0;
#X connect 73 0 72 0;
#X connect 74 0 76 0;
#X connect 75 0 74 0;
#X connect 75 1 74 1;
#X restore 311 318 pd grainline;
#N canvas 152 108 971 650 grainline 0;
#X obj 154 613 dac~;
#X obj 267 21 adc~;
#X obj 168 557 -;
#X msg 168 502 1;
#X obj 153 584 *~;
#X obj 200 584 *~;
#X text 298 525 spread grain in the stereophonic space;
#X obj 486 72 receive amp;
#X floatatom 486 92 5 0 0 0 - - -;
#X obj 486 138 line~;
#X msg 486 115 \$1 20;
#X obj 266 70 hip~ 5;
#X text 372 71 highpass filter;
#X obj 321 70 hip~ 5;
#X obj 266 189 samplerate~;
#X floatatom 266 234 5 0 0 0 - - -;
#X text 343 186 report current sample rate of the patch;
#X text 337 257 = 1 second of table size;
#X text 275 285 * 1 \, 2 \, 3 \, ecc. = table size 1 \, 2... seconds
;
#X text 336 242 samples here;
#X text 151 397 read from 0 to 1 @ 0 to the sample dimension of the
table;
#X obj 531 438 cos~;
#X obj 531 392 *~ 0.5;
#X obj 530 415 -~ 0.25;
#X text 583 389 cos~ is a sinewave table \; who start from 1 \, at
the mid of the table is -1 \, and in the end again 1;
#X text 568 438 this is why a phasor*0.5 read mid of the table \; and
-0.25 start read from 0 instead of 1;
#X text 530 366 envelope;
#X obj 113 471 *~;
#X obj 114 357 line~;
#X obj 115 307 pack f f f;
#X msg 114 331 \$1 \, \$2 \$3;
#X msg 102 261 0;
#X obj 210 473 t b b;
#X obj 237 501 random 1000;
#X obj 237 529 / 1000;
#X obj 57 43 receive grain-lenght;
#X floatatom 20 208 5 0 0 0 - - -;
#X msg 139 262 1;
#X floatatom 269 261 5 0 0 0 - - -;
#X floatatom 243 313 5 0 0 0 - - -;
#X obj 81 232 t b b b;
#X obj 243 286 *;
#X obj 114 396 *~;
#X obj 197 21 r initbang;
#X obj 197 45 tgl 15 0 empty empty empty 17 7 0 10 -262144 -1 -1 0
1;
#X obj 125 201 metro 1000;
#X obj 107 70 receive metro-trigger;
#X obj 111 126 +;
#X floatatom 111 150 5 0 0 0 - - -;
#X obj 107 99 random;
#X obj 586 52 bng 15 250 50 0 empty empty empty 17 7 0 10 -262144 -1
-1;
#X obj 558 52 bng 15 250 50 0 empty empty empty 17 7 0 10 -262144 -1
-1;
#X obj 11 19 receive pitch;
#X obj 11 128 t b f;
#X obj 11 170 /;
#X obj 508 18 r initbang;
#X text 263 166 the array graphical array stored inside the object
(open);
#X text 298 102 write on the array when bang;
#X text 402 325 resize the array (with the sample rate \, here);
#X text 261 422 read from the array;
#X text 189 613 digital to analog converter (out);
#X text 302 19 analog to digital converter (in);
#X obj 586 18 receive trigger-global;
#X obj 730 18 r trig-local-1;
#X obj 266 212 / 10;
#X obj 57 127 * 100;
#X obj 698 61 random 100000;
#X floatatom 698 82 5 0 0 0 - - -;
#X msg 606 105 set \$1-memory;
#X obj 114 422 tabread4~;
#X obj 670 129 t b;
#X obj 267 149 tabwrite~;
#X obj 715 143 s \$0-array;
#X msg 715 119 rename \$1-memory;
#X obj 703 285 pack f f;
#X obj 698 248 t b f;
#X msg 703 308 \; \$2-memory resize \$1;
#X obj 716 176 table \$0-array;
#X connect 1 0 11 0;
#X connect 1 1 13 0;
#X connect 2 0 4 1;
#X connect 3 0 2 0;
#X connect 4 0 0 0;
#X connect 5 0 0 1;
#X connect 7 0 8 0;
#X connect 8 0 10 0;
#X connect 10 0 9 0;
#X connect 11 0 71 0;
#X connect 13 0 71 0;
#X connect 14 0 64 0;
#X connect 15 0 41 0;
#X connect 15 0 74 0;
#X connect 21 0 27 1;
#X connect 22 0 23 0;
#X connect 23 0 21 0;
#X connect 27 0 4 0;
#X connect 27 0 5 0;
#X connect 28 0 22 0;
#X connect 28 0 42 0;
#X connect 29 0 30 0;
#X connect 30 0 28 0;
#X connect 31 0 29 0;
#X connect 32 0 3 0;
#X connect 32 1 33 0;
#X connect 33 0 34 0;
#X connect 34 0 5 1;
#X connect 34 0 2 1;
#X connect 35 0 38 0;
#X connect 35 0 65 0;
#X connect 36 0 29 2;
#X connect 36 0 47 1;
#X connect 37 0 29 1;
#X connect 38 0 41 1;
#X connect 39 0 42 1;
#X connect 40 0 31 0;
#X connect 40 1 37 0;
#X connect 40 2 41 0;
#X connect 41 0 39 0;
#X connect 42 0 69 0;
#X connect 43 0 44 0;
#X connect 44 0 45 0;
#X connect 45 0 32 0;
#X connect 45 0 40 0;
#X connect 45 0 49 0;
#X connect 46 0 49 1;
#X connect 47 0 48 0;
#X connect 48 0 45 1;
#X connect 49 0 47 0;
#X connect 50 0 71 0;
#X connect 51 0 71 0;
#X connect 52 0 53 0;
#X connect 53 0 54 0;
#X connect 53 1 54 1;
#X connect 54 0 36 0;
#X connect 55 0 51 0;
#X connect 55 0 66 0;
#X connect 62 0 50 0;
#X connect 63 0 50 0;
#X connect 64 0 15 0;
#X connect 65 0 54 0;
#X connect 66 0 67 0;
#X connect 67 0 73 0;
#X connect 67 0 68 0;
#X connect 67 0 75 0;
#X connect 68 0 69 0;
#X connect 68 0 70 0;
#X connect 68 0 71 0;
#X connect 69 0 27 0;
#X connect 70 0 14 0;
#X connect 73 0 72 0;
#X connect 74 0 76 0;
#X connect 75 0 74 0;
#X connect 75 1 74 1;
#X restore 311 345 pd grainline;
#N canvas 152 108 971 650 grainline 0;
#X obj 154 613 dac~;
#X obj 267 21 adc~;
#X obj 168 557 -;
#X msg 168 502 1;
#X obj 153 584 *~;
#X obj 200 584 *~;
#X text 298 525 spread grain in the stereophonic space;
#X obj 486 72 receive amp;
#X floatatom 486 92 5 0 0 0 - - -;
#X obj 486 138 line~;
#X msg 486 115 \$1 20;
#X obj 266 70 hip~ 5;
#X text 372 71 highpass filter;
#X obj 321 70 hip~ 5;
#X obj 266 189 samplerate~;
#X floatatom 266 234 5 0 0 0 - - -;
#X text 343 186 report current sample rate of the patch;
#X text 337 257 = 1 second of table size;
#X text 275 285 * 1 \, 2 \, 3 \, ecc. = table size 1 \, 2... seconds
;
#X text 336 242 samples here;
#X text 151 397 read from 0 to 1 @ 0 to the sample dimension of the
table;
#X obj 531 438 cos~;
#X obj 531 392 *~ 0.5;
#X obj 530 415 -~ 0.25;
#X text 583 389 cos~ is a sinewave table \; who start from 1 \, at
the mid of the table is -1 \, and in the end again 1;
#X text 568 438 this is why a phasor*0.5 read mid of the table \; and
-0.25 start read from 0 instead of 1;
#X text 530 366 envelope;
#X obj 113 471 *~;
#X obj 114 357 line~;
#X obj 115 307 pack f f f;
#X msg 114 331 \$1 \, \$2 \$3;
#X msg 102 261 0;
#X obj 210 473 t b b;
#X obj 237 501 random 1000;
#X obj 237 529 / 1000;
#X obj 57 43 receive grain-lenght;
#X floatatom 20 208 5 0 0 0 - - -;
#X msg 139 262 1;
#X floatatom 269 261 5 0 0 0 - - -;
#X floatatom 243 313 5 0 0 0 - - -;
#X obj 81 232 t b b b;
#X obj 243 286 *;
#X obj 114 396 *~;
#X obj 197 21 r initbang;
#X obj 197 45 tgl 15 0 empty empty empty 17 7 0 10 -262144 -1 -1 0
1;
#X obj 125 201 metro 1000;
#X obj 107 70 receive metro-trigger;
#X obj 111 126 +;
#X floatatom 111 150 5 0 0 0 - - -;
#X obj 107 99 random;
#X obj 586 52 bng 15 250 50 0 empty empty empty 17 7 0 10 -262144 -1
-1;
#X obj 558 52 bng 15 250 50 0 empty empty empty 17 7 0 10 -262144 -1
-1;
#X obj 11 19 receive pitch;
#X obj 11 128 t b f;
#X obj 11 170 /;
#X obj 508 18 r initbang;
#X text 263 166 the array graphical array stored inside the object
(open);
#X text 298 102 write on the array when bang;
#X text 402 325 resize the array (with the sample rate \, here);
#X text 261 422 read from the array;
#X text 189 613 digital to analog converter (out);
#X text 302 19 analog to digital converter (in);
#X obj 586 18 receive trigger-global;
#X obj 730 18 r trig-local-1;
#X obj 266 212 / 10;
#X obj 57 127 * 100;
#X obj 698 61 random 100000;
#X floatatom 698 82 5 0 0 0 - - -;
#X msg 606 105 set \$1-memory;
#X obj 114 422 tabread4~;
#X obj 670 129 t b;
#X obj 267 149 tabwrite~;
#X obj 715 143 s \$0-array;
#X msg 715 119 rename \$1-memory;
#X obj 703 285 pack f f;
#X obj 698 248 t b f;
#X msg 703 308 \; \$2-memory resize \$1;
#X obj 716 176 table \$0-array;
#X connect 1 0 11 0;
#X connect 1 1 13 0;
#X connect 2 0 4 1;
#X connect 3 0 2 0;
#X connect 4 0 0 0;
#X connect 5 0 0 1;
#X connect 7 0 8 0;
#X connect 8 0 10 0;
#X connect 10 0 9 0;
#X connect 11 0 71 0;
#X connect 13 0 71 0;
#X connect 14 0 64 0;
#X connect 15 0 41 0;
#X connect 15 0 74 0;
#X connect 21 0 27 1;
#X connect 22 0 23 0;
#X connect 23 0 21 0;
#X connect 27 0 4 0;
#X connect 27 0 5 0;
#X connect 28 0 22 0;
#X connect 28 0 42 0;
#X connect 29 0 30 0;
#X connect 30 0 28 0;
#X connect 31 0 29 0;
#X connect 32 0 3 0;
#X connect 32 1 33 0;
#X connect 33 0 34 0;
#X connect 34 0 5 1;
#X connect 34 0 2 1;
#X connect 35 0 38 0;
#X connect 35 0 65 0;
#X connect 36 0 29 2;
#X connect 36 0 47 1;
#X connect 37 0 29 1;
#X connect 38 0 41 1;
#X connect 39 0 42 1;
#X connect 40 0 31 0;
#X connect 40 1 37 0;
#X connect 40 2 41 0;
#X connect 41 0 39 0;
#X connect 42 0 69 0;
#X connect 43 0 44 0;
#X connect 44 0 45 0;
#X connect 45 0 32 0;
#X connect 45 0 40 0;
#X connect 45 0 49 0;
#X connect 46 0 49 1;
#X connect 47 0 48 0;
#X connect 48 0 45 1;
#X connect 49 0 47 0;
#X connect 50 0 71 0;
#X connect 51 0 71 0;
#X connect 52 0 53 0;
#X connect 53 0 54 0;
#X connect 53 1 54 1;
#X connect 54 0 36 0;
#X connect 55 0 51 0;
#X connect 55 0 66 0;
#X connect 62 0 50 0;
#X connect 63 0 50 0;
#X connect 64 0 15 0;
#X connect 65 0 54 0;
#X connect 66 0 67 0;
#X connect 67 0 73 0;
#X connect 67 0 68 0;
#X connect 67 0 75 0;
#X connect 68 0 69 0;
#X connect 68 0 70 0;
#X connect 68 0 71 0;
#X connect 69 0 27 0;
#X connect 70 0 14 0;
#X connect 73 0 72 0;
#X connect 74 0 76 0;
#X connect 75 0 74 0;
#X connect 75 1 74 1;
#X restore 311 373 pd grainline;
#X connect 1 0 2 0;
#X connect 2 0 0 0;
#X connect 3 0 4 0;
#X connect 4 0 46 0;
#X connect 8 0 53 0;
#X connect 9 0 12 0;
#X connect 12 0 54 0;
#X connect 12 0 83 0;
#X connect 12 0 51 0;
#X connect 12 0 45 0;
#X connect 12 0 10 0;
#X connect 21 0 25 0;
#X connect 22 0 21 0;
#X connect 22 0 23 0;
#X connect 22 0 24 0;
#X connect 22 0 37 0;
#X connect 22 0 36 0;
#X connect 24 0 25 0;
#X connect 25 0 13 0;
#X connect 25 1 14 0;
#X connect 25 2 15 0;
#X connect 25 3 16 0;
#X connect 25 4 17 0;
#X connect 25 5 18 0;
#X connect 25 6 19 0;
#X connect 25 7 20 0;
#X connect 26 0 32 0;
#X connect 27 0 32 1;
#X connect 28 0 32 2;
#X connect 29 0 32 3;
#X connect 30 0 32 4;
#X connect 31 0 32 5;
#X connect 32 0 33 0;
#X connect 34 0 32 6;
#X connect 35 0 32 7;
#X connect 36 0 25 0;
#X connect 37 0 25 0;
#X connect 39 0 40 0;
#X connect 40 0 56 0;
#X connect 41 0 79 0;
#X connect 42 0 41 0;
#X connect 43 0 50 0;
#X connect 44 0 43 0;
#X connect 50 0 78 0;
#X connect 51 0 50 0;
#X connect 52 0 8 0;
#X connect 54 0 1 0;
#X connect 55 0 1 0;
#X connect 56 0 57 0;
#X connect 56 1 55 1;
#X connect 57 0 55 0;
#X connect 59 0 62 0;
#X connect 63 0 70 1;
#X connect 64 0 80 0;
#X connect 65 0 70 0;
#X connect 70 0 63 0;
#X connect 70 0 81 0;
#X connect 71 0 72 0;
#X connect 73 0 65 0;
#X connect 78 0 52 0;
#X connect 79 0 3 0;
#X connect 80 0 66 0;
#X connect 80 1 67 0;
#X connect 80 2 68 0;
#X connect 80 3 69 0;
#X connect 80 4 74 0;
#X connect 80 5 75 0;
#X connect 80 6 76 0;
#X connect 80 7 77 0;
#X connect 81 0 64 0;
#X connect 83 0 3 0;
